<svg xmlns="http://www.w3.org/2000/svg" width="120" height="120" viewBox="0 0 120 120">
    <g fill="none">
        <path fill="#CCD9EF" d="M41.564 11.256c0 .206.025.406.06.602-.035.196-.06.395-.06.602 0 1.852 1.502 3.355 3.355 3.355 1.852 0 3.355-1.503 3.355-3.355 0-.207-.025-.407-.061-.602.035-.196.06-.396.06-.602 0-1.853-1.502-3.355-3.354-3.355-1.853 0-3.355 1.502-3.355 3.355z"/>
        <path fill="#586BB2" d="M5.965 30.858V20.77H16.502v-6.216H9.38c-4.859 0-8.797 3.939-8.797 8.797v36.277c0 8.82 1.936 17.182 5.382 24.708V30.858zM84 20.77v42.068c1.574-.965 3.452-1.531 5.381-1.726V23.351c0-4.858-3.938-8.797-8.796-8.797h-7.113v6.216h10.527z"/>
        <path fill="#1F2B7B" d="M73.472 20.77L73.472 14.554 71.467 14.554 71.467 20.77 73.469 20.77zM44.919 14.554L44.918 14.554 44.919 14.554zM16.502 14.554H18.497V20.769H16.502z"/>
        <path fill="#FFF" d="M57.973 105.51c3.593-3.387 6.75-6.374 9.383-8.876.565-.537 1.15-1.046 1.752-1.532.465-.377.95-.724 1.435-1.07.125-.09.244-.187.37-.273 1.23-.85 2.523-1.595 3.862-2.247l.003-.001c2.74-1.334 5.68-2.236 8.727-2.675.303-1.682.429-3.495-.71-5.169-4.655-6.833-3.92-13.005-2.249-16.935.717-1.685 1.946-2.97 3.453-3.894V20.77H73.47v8.237c0 3.685-2.987 6.672-6.672 6.672h-43.63c-3.685 0-6.672-2.987-6.672-6.672V20.77h-.441L5.965 30.858v53.478c7.162 15.643 20.905 27.63 37.694 32.43 3.342-1.778 6.89-4.264 10.58-7.738l3.734-3.518zm-2.48-52.542l6.693-6.694 3.755 3.754-17.26 17.26c-.83.83-2.174.83-3.004 0l-8.514-8.514 3.754-3.754 4.76 4.76c.83.83 2.175.83 3.004 0l5.833-5.834v-.263c0-1.225-.997-2.223-2.223-2.223H37.307c-1.225 0-2.223.998-2.223 2.223v13.91c0 1.226.998 2.223 2.223 2.223h14.984c1.226 0 2.223-.997 2.223-2.223v-4.545l1.062-1.062v5.607c0 1.812-1.473 3.285-3.285 3.285H37.307c-1.811 0-3.285-1.473-3.285-3.285v-13.91c0-1.811 1.474-3.285 3.285-3.285h14.984c1.565 0 2.873 1.102 3.202 2.57zM23.01 78.091h43.943c1.064 0 1.926.863 1.926 1.927s-.862 1.926-1.926 1.926H23.01c-1.064 0-1.927-.862-1.927-1.926s.863-1.927 1.927-1.927zm-1.927 8.83c0-1.065.863-1.927 1.927-1.927h43.943c1.064 0 1.926.862 1.926 1.926s-.862 1.927-1.926 1.927H23.01c-1.064 0-1.927-.863-1.927-1.927z"/>
        <path fill="#CCD9EF" d="M16.054 20.77L5.965 20.77 5.965 20.77 5.965 30.858 5.965 30.858z"/>
        <path fill="#A9C0E4" d="M16.495 29.007c0 3.685 2.987 6.672 6.672 6.672h43.63c3.685 0 6.672-2.987 6.672-6.672V20.77h-2.002v7.355c0 .578-.114 1.124-.28 1.647v.002c-.332 1.05-.963 1.957-1.805 2.63-.063.051-.123.107-.19.156-.144.106-.296.197-.451.288-.136.081-.274.157-.417.226-.135.064-.269.124-.409.177-.192.074-.39.132-.592.184-.114.029-.225.064-.342.086-.329.062-.665.102-1.012.102H23.995c-.347 0-.683-.04-1.012-.102-.117-.022-.228-.057-.342-.086-.202-.052-.4-.11-.592-.184-.14-.053-.274-.113-.408-.177-.144-.069-.281-.145-.417-.226-.155-.091-.308-.183-.453-.288-.066-.049-.125-.104-.188-.156-1.262-1.007-2.086-2.54-2.086-4.279V20.77H16.495v8.237z"/>
        <path fill="#ECF0F9" d="M18.497 20.77v7.355c0 1.74.824 3.272 2.086 4.28-.834-.676-1.475-1.583-1.806-2.633h52.41c.166-.523.28-1.07.28-1.647V12.404c0-1.823-1.477-3.3-3.299-3.3H54.302c-1.42-4.437-4.475-7.102-9.383-7.102-4.91 0-7.965 2.665-9.384 7.103H21.796c-1.822 0-3.299 1.476-3.299 3.298v8.367zm29.777-9.514c0 .206-.026.406-.061.602.036.195.06.395.06.602 0 1.852-1.502 3.355-3.354 3.355-1.853 0-3.355-1.503-3.355-3.355 0-.207.025-.406.06-.602-.035-.196-.06-.396-.06-.602 0-1.853 1.502-3.355 3.355-3.355 1.852 0 3.355 1.502 3.355 3.355zM67.323 33.435c-.114.029-.225.064-.342.086.117-.022.228-.057.342-.086zM69.193 32.56c-.144.106-.299.196-.452.288.155-.091.307-.182.452-.288zM68.324 33.074c-.134.065-.27.123-.409.177.14-.053.274-.113.409-.177zM22.983 33.52c-.117-.021-.228-.056-.342-.085.114.029.225.064.342.086zM22.049 33.25c-.139-.053-.275-.111-.408-.176.134.064.268.124.408.177zM69.382 32.404c.842-.673 1.473-1.58 1.805-2.63-.331 1.048-.971 1.955-1.805 2.63zM21.224 32.848c-.154-.092-.31-.182-.453-.288.145.105.298.197.453.288z"/>
        <path fill="#CCD9EF" d="M21.796 9.105h13.74c1.418-4.438 4.474-7.103 9.383-7.103 4.908 0 7.964 2.665 9.383 7.103h13.866c1.822 0 3.299 1.476 3.299 3.298v2.151h9.118c4.858 0 8.796 3.939 8.796 8.797v37.761c5.635-.568 11.679 2.016 11.675 6.99l-.001.142c-.072 6.499-1.85 9.26 9.003 10.7 1.872.25 3.94.344 6.014.463 2.184-6.189 3.384-12.842 3.384-19.779 0-32.826-26.61-59.436-59.436-59.436-3.623 0-7.165.342-10.609.962C48.04.54 46.521.192 44.92.192c-3.985 0-7.472 2.118-9.404 5.29-1.592.721-3.146 1.508-4.66 2.362h-9.059c-1.822 0-3.299 1.477-3.299 3.3V12.402c0-1.822 1.477-3.298 3.3-3.298z"/>
        <path fill="#CCD9EF" d="M21.224 32.848c.136.081.273.157.417.226.133.065.269.123.408.177.192.074.39.132.592.184.114.029.225.064.342.086.329.062.665.102 1.012.102H65.97c.347 0 .683-.04 1.012-.102.117-.022.228-.057.342-.086.202-.052.4-.11.592-.184.14-.054.275-.112.409-.177.143-.069.28-.145.417-.226.153-.092.308-.182.452-.288.066-.049.126-.105.19-.156.833-.675 1.473-1.582 1.805-2.63v-.002H18.777c.331 1.05.972 1.957 1.806 2.632.063.052.122.107.188.156.144.106.299.196.453.288zM23.01 81.944h43.944c1.064 0 1.926-.862 1.926-1.926s-.862-1.927-1.926-1.927H23.01c-1.064 0-1.927.863-1.927 1.927s.863 1.926 1.927 1.926zM68.88 86.92c0-1.064-.862-1.926-1.926-1.926H23.01c-1.064 0-1.927.862-1.927 1.926s.863 1.927 1.927 1.927h43.943c1.064 0 1.926-.863 1.926-1.927z"/>
        <path fill="#3ABAB4" d="M34.022 53.683v13.91c0 1.812 1.474 3.285 3.285 3.285h14.984c1.812 0 3.285-1.473 3.285-3.285v-5.607l-1.062 1.062v4.545c0 1.226-.997 2.223-2.223 2.223H37.307c-1.225 0-2.223-.997-2.223-2.223v-13.91c0-1.225.998-2.223 2.223-2.223h14.984c1.226 0 2.223.998 2.223 2.223v.263l-5.833 5.834c-.83.83-2.174.83-3.004 0l-4.76-4.76-3.754 3.754 8.514 8.515c.83.83 2.175.83 3.004 0l17.26-17.26-3.755-3.755-6.693 6.694c-.329-1.468-1.637-2.57-3.202-2.57H37.307c-1.811 0-3.285 1.474-3.285 3.285z"/>
        <path fill="#1F2B7B" d="M101.055 68.244v-.143c.005-4.973-6.039-7.557-11.674-6.989-1.93.195-3.807.761-5.382 1.726-1.507.924-2.736 2.209-3.453 3.894-1.671 3.93-2.406 10.102 2.248 16.935 1.14 1.674 1.014 3.487.711 5.17.442-.064.881-.143 1.327-.186h.001s.236.24.66.552l.406-5.734c-4.87-1.689-4.698-7.848-3.92-12.13.22-1.206.693-2.322 1.358-3.29 3.387.591 7.991-1.998 9.227-2.745.556 1.367 2.37 5.552 4.174 6.818l.016.118c.019-.022.038-.042.058-.062l.005.004v-.009c.225-.228.506-.358.803-.332.63.055 1.083.774 1.01 1.606-.071.832-.64 1.463-1.271 1.408-.165-.014-.316-.075-.45-.17l-.454 3.756-.357 10.225c.097-.066.189-.115.286-.184 0 0 6.01-1.09 14.255 2.298 2.195-3.56 4.02-7.368 5.433-11.373-2.073-.119-4.142-.214-6.014-.462-10.853-1.442-9.075-4.202-9.003-10.7z"/>
        <path fill="#FABCA3" d="M96.098 88.666l.357-10.225.454-3.756c-.38-.269-.614-.82-.561-1.436.035-.402.188-.756.406-1.009l-.016-.118c-1.805-1.266-3.618-5.451-4.174-6.818-1.236.747-5.84 3.336-9.227 2.745-.665.968-1.138 2.084-1.357 3.29-.779 4.282-.951 10.441 3.919 12.13 0 0 2.254.958 5.603-.98 0 0-2.033 3.598-5.86 4.693l.257-3.713-.406 5.734c1.467 1.08 5.322 3.059 10.605-.537z"/>
        <path fill="#EA7D7A" d="M91.502 82.49c-3.35 1.937-5.603.979-5.603.979l-.257 3.713c3.827-1.095 5.86-4.693 5.86-4.693z"/>
        <path fill="#FABCA3" d="M96.91 74.685c.133.095.284.156.449.17.63.055 1.2-.576 1.272-1.408.072-.832-.38-1.551-1.011-1.606-.297-.026-.578.104-.803.332v.009l-.005-.004c-.02.02-.04.04-.058.062-.218.253-.371.607-.406 1.01-.053.615.181 1.166.561 1.435z"/>
        <path fill="#F0A3A3" d="M70.543 94.031c-.485.347-.97.694-1.435 1.071.466-.375.949-.726 1.435-1.07zM74.775 91.512c-1.339.652-2.632 1.397-3.862 2.247 1.232-.845 2.523-1.595 3.862-2.247zM96.384 88.482c-.097.07-.19.118-.286.184-5.283 3.596-9.138 1.617-10.605.537-.424-.313-.66-.552-.66-.552-.447.043-.886.122-1.328.185-3.047.439-5.987 1.341-8.727 2.675-1.387 2.215-2.85 4.38-3.826 6.864-1.612 4.106-2.505 8.433-2.87 12.822-.205 2.481-.227 4.92-.31 7.348 18.127-2.363 33.687-12.88 42.867-27.765-8.244-3.389-14.255-2.298-14.255-2.298z"/>
        <path fill="#D66767" d="M70.952 98.375c.976-2.485 2.439-4.649 3.826-6.864l-.003.001c-1.339.652-2.63 1.402-3.862 2.247-.126.086-.245.184-.37.272-.486.345-.969.696-1.435 1.071-.602.486-1.187.995-1.752 1.532-2.633 2.502-5.79 5.489-9.383 8.876-1.197 1.13-2.443 2.303-3.735 3.518-3.69 3.474-7.237 5.96-10.58 7.737 5.2 1.487 10.685 2.3 16.362 2.3 2.629 0 5.213-.19 7.752-.52.083-2.428.105-4.867.31-7.348.365-4.39 1.258-8.716 2.87-12.822z"/>
    </g>
</svg>
