<svg xmlns="http://www.w3.org/2000/svg" width="120" height="120" viewBox="0 0 120 120">
    <g fill="none" fill-rule="evenodd">
        <g fill-rule="nonzero">
            <path fill="#CCD9EF" d="M67.17 5.55c0-1.817.966-3.399 2.403-4.294-3.111-.502-6.3-.774-9.553-.774-12.39 0-23.892 3.795-33.415 10.281h40.566V5.55zM109.107 52.611c-.069-.787-.387-1.533-.69-2.251-.194-.456-.374-.898-.567-1.34l-.426-1c-.479.67-1.023 1.375-1.535 2.248l.196 5.942.044.007c.145.023.975.158 2.148.428h.004l.089.021c.018-.094.035-.189.06-.283.304-1.244.802-2.487.677-3.772zM99.178 56.384l.063-2.997c-1.799-.51-2.625-1.988-2.944-3.68l-.13.084c-.308.198-.693.02-.78-.314V58c1.137-.633 2.316-1.184 3.57-1.548l.094-.029c.042-.012.084-.028.127-.04z"/>
            <path fill="#CCD9EF" d="M77.307 10.763h5.337c.876 0 1.732.09 2.56.26.413.085.82.19 1.218.315.533.167 1.045.38 1.546.612.797.37 1.548.82 2.247 1.34l.11.084c.137.104.28.2.412.308.489.404.937.853 1.36 1.323.058.064.118.126.174.192.04.045.083.087.122.133.104.124.2.254.299.382.086.11.17.224.253.338.119.163.238.325.35.495.172.26.335.528.489.802.073.133.138.27.207.405.101.196.198.394.289.595.06.137.12.275.176.414.099.243.188.49.272.74.032.097.07.19.1.289.106.345.196.697.272 1.054.023.105.04.21.06.316.018.095.037.19.053.285.01.06.025.118.034.178.019.127.028.257.043.385.013.112.028.223.038.336l.005.048c.005.055.014.108.018.163.024.314.036.631.036.951v20.832c.159-3.836 3.064-6.896 6.637-6.896 2.244 0 5.032.701 6.237 2.548.769 1.178.417 3.122.417 4.675 0 .316-.028.607-.078.881 1.229.229 2.08.812 3.38 1.595 1.437.856 2.598 2.224 3.081 3.813.083.262.138.525.18.8.304 2.114-.622 4.325.014 6.355.124.401.317.788.51 1.16.093.18.189.354.285.53.223.172.43.352.621.538.946.75 1.766 1.604 2.533 2.502.009.01.018.014.027.024.05.057.094.116.143.174.054-1.033.082-2.072.082-3.119 0-27.107-18.154-49.96-42.962-57.105.51.79.813 1.727.813 2.737v5.213zM92.758 95.562c-.23.301-.472.59-.728.87l-.027.03c-.322.349-.66.681-1.017.993l-.002.002-.018.016-.001.001c-.739.64-1.547 1.199-2.417 1.658h-.001c-.036.02-.073.035-.109.053l-.002.001c-.153.079-.308.152-.464.224l-.004.003c-.22.102-.443.2-.67.29-.12.047-.242.089-.363.133h-.002c-.317.115-.639.217-.966.306h-.001c-.148.041-.296.08-.445.116h-.001c-.327.076-.658.136-.993.186h-.003c-.143.022-.284.05-.429.066-.476.055-.956.09-1.445.09H16.708c10.842 11.538 26.23 18.755 43.312 18.755 12.076 0 23.304-3.612 32.682-9.8l.056-13.993z"/>
            <path fill="#FFF" d="M.65 22.208c.13-1.28.454-2.507.939-3.65-.485 1.143-.809 2.37-.94 3.65zM11.203 10.956c-.982.167-1.931.433-2.824.813.893-.38 1.842-.646 2.824-.813zM6.214 12.947c-1.356.918-2.528 2.09-3.447 3.447.919-1.356 2.091-2.529 3.447-3.447zM87.972 99.41c.156-.072.311-.145.464-.224-.068.035-.14.061-.209.095-.086.042-.169.089-.255.13zM84.094 100.51c-.475.055-.955.09-1.444.09.489 0 .97-.035 1.444-.09zM90.737 13.682c.489.404.936.852 1.36 1.323-.423-.47-.871-.919-1.36-1.323zM87.299 99.702c.226-.09.448-.187.669-.29V99.4c-.222.103-.44.213-.67.303zM92.393 15.33c-.039-.046-.082-.088-.122-.133.04.045.083.087.122.133zM30.001 38.428H15.018c-1.226 0-2.223.997-2.223 2.223v13.91c0 1.226.997 2.223 2.223 2.223h14.983c1.226 0 2.224-.997 2.224-2.223V40.65c0-1.226-.998-2.223-2.224-2.223zM30.001 62.649H15.018c-1.226 0-2.223.997-2.223 2.223v13.91c0 1.226.997 2.223 2.223 2.223h14.983c1.226 0 2.224-.997 2.224-2.223v-13.91c0-1.226-.998-2.223-2.224-2.223zM85.52 100.258c-.327.076-.658.135-.993.186.335-.05.666-.11.993-.186zM86.933 99.837c-.317.114-.639.216-.966.305.327-.089.649-.191.966-.305zM92.066 96.391l-.008.01-.028.03c.256-.279.498-.568.728-.869v-.022c-.222.291-.446.58-.692.851zM55.477 62.649H40.493c-1.225 0-2.223.997-2.223 2.223v13.91c0 1.226.998 2.223 2.223 2.223h14.984c1.226 0 2.223-.997 2.223-2.223v-13.91c0-1.226-.997-2.223-2.223-2.223zM90.995 97.446l-.01.009c.359-.312.696-.644 1.017-.993l-.036.035c-.308.332-.63.651-.971.949zM83.177 54.56V40.652c0-1.226-.998-2.223-2.225-2.223H65.97c-1.226 0-2.224.997-2.224 2.223V54.05c.862.738 1.596 1.408 1.596 1.408s-.174-1.292.61-2.194c.199-.23.603-.2.794-.08-.355.888.18 2.498.641 3.601h13.565c1.227 0 2.225-.997 2.225-2.223zM64.735 63.025c-.595.4-.989 1.078-.989 1.847v13.91c0 1.226.998 2.223 2.224 2.223h14.982c1.227 0 2.225-.997 2.225-2.223v-.36c-8.212-2.993-14.297-8.307-18.442-15.397z"/>
            <path fill="#FFF" d="M56.775 95.275H77.92c5.55 0 10.048-4.498 10.048-10.048v-2.882c0-1.448-.966-2.705-2.355-3.115l-.023-.007c-.46-.135-.904-.29-1.352-.44 0 1.811-1.475 3.284-3.286 3.284H65.97c-1.812 0-3.286-1.473-3.286-3.285v-13.91c0-1.164.613-2.183 1.529-2.766-.54-.983-1.045-1.997-1.514-3.042-1.508-1.379-3.303-3.055-3.424-3.337-.211-.493 2.056.984 2.056.984s-1.877-1.81-2.162-2.588c-.227-.618 2.681 1.326 2.681 1.326-2.415-3.045-2.43-2.836-2.415-3.045.034-.505 2.892 2.075 3.276 2.424v-.012c-.233-.266-1.875-2.178-1.692-2.637.08-.202.82.314 1.665.99V40.65c0-1.811 1.474-3.285 3.286-3.285h14.982c1.812 0 3.286 1.474 3.286 3.285v13.91c0 1.812-1.474 3.285-3.286 3.285H67.874l.058.114s2.327 2.03 5.847 3.627h7.173c1.253 0 2.332.713 2.887 1.748 1.36-.184 2.745-.56 4.129-1.203v-34.89H.583v32.676c0 13.25 4.34 25.483 11.669 35.366h44.381c.048 0 .094-.008.142-.009zM49.103 36.16h10.21v14.638c0 .848-.945 1.354-1.65.884l-2.708-3.033c-.426-.477-1.174-.472-1.594.011l-2.598 2.991c-.705.48-1.66-.024-1.66-.877V36.16zm-11.895 4.493c0-1.812 1.474-3.285 3.285-3.285h7.548v1.062h-7.548c-1.225 0-2.223.997-2.223 2.223v13.91c0 1.226.998 2.223 2.223 2.223h14.984c1.226 0 2.223-.997 2.223-2.223v-1.721c.18.048.366.08.552.08.171 0 .342-.02.51-.062v1.703c0 1.811-1.474 3.285-3.285 3.285H40.493c-1.811 0-3.285-1.474-3.285-3.285v-13.91zm-3.921 38.129c0 1.812-1.474 3.285-3.286 3.285H15.018c-1.812 0-3.285-1.473-3.285-3.285v-13.91c0-1.811 1.473-3.285 3.285-3.285h14.983c1.812 0 3.286 1.474 3.286 3.285v13.91zm0-24.221c0 1.812-1.474 3.285-3.286 3.285H15.018c-1.812 0-3.285-1.473-3.285-3.285V40.65c0-1.811 1.473-3.285 3.285-3.285h14.983c1.812 0 3.286 1.474 3.286 3.285v13.91zm7.206 27.506c-1.811 0-3.285-1.473-3.285-3.285v-13.91c0-1.811 1.474-3.285 3.285-3.285h14.984c1.811 0 3.285 1.474 3.285 3.285v13.91c0 1.812-1.474 3.285-3.285 3.285H40.493z"/>
            <path fill="#FFF" d="M80.952 62.649h-4.38c1.866.57 3.928.916 6.075.8-.408-.485-1.012-.8-1.695-.8zM89.98 98.236c-.104.075-.208.149-.314.22-.316.21-.64.407-.974.589-.05.027-.094.06-.144.087.87-.46 1.678-1.018 2.417-1.658l-.017.013c-.309.266-.635.513-.968.75z"/>
            <path fill="#ECF0F9" d="M93.295 16.545c.171.261.336.528.489.802-.154-.274-.317-.541-.49-.802zM94.267 18.32l.013.027c-.091-.201-.188-.4-.289-.595.009.016.016.033.024.049.087.171.172.344.252.52zM92.219 15.139l.052.058c-.056-.066-.116-.128-.173-.192h-.001l.107.118.015.016zM92.878 15.96l.067.09c-.083-.114-.167-.227-.253-.338l.031.042c.053.068.103.137.155.206zM82.644 100.6h.006c.489 0 .97-.035 1.444-.09h.001c.145-.016.286-.044.429-.066h.003c.335-.05.666-.11.993-.186.15-.035.298-.075.446-.115.328-.09.65-.192.967-.306l.002-.001c.121-.044.243-.086.363-.133.23-.091.448-.201.67-.304v.013l.004-.002c.086-.04.17-.087.255-.13.069-.033.141-.06.209-.094l.002-.001c.036-.018.073-.034.109-.053.05-.027.096-.06.145-.087.334-.182.658-.38.974-.59.106-.07.21-.144.314-.219.333-.236.66-.483.968-.75l.017-.012.019-.017.002-.002.009-.01c.342-.297.663-.616.971-.948l.036-.035.028-.03c.01-.011.02-.021.028-.032l.008-.009c.246-.27.47-.56.692-.85l.017-4.203.007-15.86c-.856-.614-1.408-1.609-1.408-3.072 0-.251.023-.468.045-.687-.452.09-.904.164-1.356.225-.038.01-.067.025-.111.03-.594.083-1.176.136-1.752.175l-.232.022v-.01c-1.289.076-2.534.056-3.73-.057v6.679c.448.15.891.305 1.352.44l.023.007c1.389.41 2.355 1.667 2.355 3.115v2.882c0 5.55-4.499 10.048-10.048 10.048H56.775c-.048.001-.094.009-.142.009H12.252c1.38 1.86 2.873 3.63 4.456 5.316h65.935zM95.333 22.392l-.005-.048.005.048zM95.213 21.445c-.016-.096-.035-.19-.053-.285v.007c.018.092.038.184.053.278zM94.719 19.476l.01.025c-.085-.25-.174-.497-.273-.74l.004.011c.094.231.179.466.259.704zM95.29 22.008c-.015-.128-.024-.258-.043-.385.019.126.027.255.043.382v.003zM87.968 11.95L87.968 11.95zM95.351 22.555c.024.314.036.631.036.951 0-.32-.012-.637-.036-.951zM90.325 13.374l-.11-.083.11.083zM95.099 20.837l.001.007c-.076-.357-.166-.709-.272-1.054v.002c.106.342.194.691.27 1.045z"/>
            <path fill="#ECF0F9" d="M64.735 63.025c4.145 7.09 10.23 12.404 18.442 15.397v-6.44c-8.467-1.171-14.393-6.539-16.962-9.333h-.245c-.457 0-.881.139-1.235.376zM64.781 60.946s-.962-.86-2.082-1.882c.47 1.045.974 2.06 1.514 3.042.34-.217.718-.376 1.127-.455-.365-.44-.559-.705-.559-.705zM92.789 59.539c.107-.067.68-.397.8-.471.59-.369 1.189-.728 1.798-1.068v-8.523c0-.003-.003-.005-.004-.008v-5.082c0-.017.003-.032.004-.049V27.243h-7.42v34.889c1.199-.547 3.508-1.716 4.822-2.593z"/>
            <path fill="#CCD9EF" d="M62.71 54.816l.001.012.045.041-.046-.053zM63.746 40.651c0-1.226.998-2.223 2.224-2.223h14.982c1.227 0 2.225.997 2.225 2.223v13.91c0 1.226-.998 2.223-2.225 2.223H67.387c.207.495.396.882.487 1.062h13.078c1.812 0 3.286-1.473 3.286-3.285V40.65c0-1.811-1.474-3.285-3.286-3.285H65.97c-1.812 0-3.286 1.474-3.286 3.285v12.517c.35.28.715.584 1.062.881V40.651zM30.001 37.366H15.018c-1.812 0-3.285 1.474-3.285 3.285v13.91c0 1.812 1.473 3.285 3.285 3.285h14.983c1.812 0 3.286-1.473 3.286-3.285V40.65c0-1.811-1.474-3.285-3.286-3.285zm2.224 17.195c0 1.226-.998 2.223-2.224 2.223H15.018c-1.226 0-2.223-.997-2.223-2.223V40.65c0-1.226.997-2.223 2.223-2.223h14.983c1.226 0 2.224.997 2.224 2.223v13.91zM58.762 78.782v-13.91c0-1.811-1.474-3.285-3.285-3.285H40.493c-1.811 0-3.285 1.474-3.285 3.285v13.91c0 1.812 1.474 3.285 3.285 3.285h14.984c1.811 0 3.285-1.473 3.285-3.285zm-1.062 0c0 1.226-.997 2.223-2.223 2.223H40.493c-1.225 0-2.223-.997-2.223-2.223v-13.91c0-1.226.998-2.223 2.223-2.223h14.984c1.226 0 2.223.997 2.223 2.223v13.91zM80.952 62.649c.683 0 1.287.315 1.695.8.395-.02.792-.06 1.192-.114-.555-1.035-1.634-1.748-2.887-1.748h-7.173c.865.392 1.8.758 2.792 1.062h4.381zM83.177 78.422v.36c0 1.226-.998 2.223-2.225 2.223H65.97c-1.226 0-2.224-.997-2.224-2.223v-13.91c0-.769.394-1.448.99-1.847.353-.237.777-.376 1.234-.376h.245c-.358-.39-.65-.727-.875-.998-.409.08-.787.238-1.127.455-.916.583-1.529 1.602-1.529 2.766v13.91c0 1.812 1.474 3.285 3.286 3.285h14.982c1.811 0 3.285-1.473 3.286-3.284v-6.679c-.358-.033-.712-.073-1.061-.122v6.44zM30.001 61.587H15.018c-1.812 0-3.285 1.474-3.285 3.285v13.91c0 1.812 1.473 3.285 3.285 3.285h14.983c1.812 0 3.286-1.473 3.286-3.285v-13.91c0-1.811-1.474-3.285-3.286-3.285zm2.224 17.195c0 1.226-.998 2.223-2.224 2.223H15.018c-1.226 0-2.223-.997-2.223-2.223v-13.91c0-1.226.997-2.223 2.223-2.223h14.983c1.226 0 2.224.997 2.224 2.223v13.91z"/>
            <path fill="#586BB2" d="M87.927 27.243V11.939c1.64.754 3.096 1.845 4.277 3.184l-.107-.118c-.424-.47-.871-.92-1.36-1.323-.132-.109-.275-.204-.412-.308l-.11-.083c-.7-.52-1.45-.97-2.247-1.34-.501-.233-1.013-.446-1.546-.613-.398-.124-.805-.23-1.219-.315-.827-.17-1.683-.26-2.56-.26h-5.336v6.183c0 2.798-2.269 5.067-5.068 5.067-1.05 0-2.025-.319-2.834-.865-.54-.365-1.004-.83-1.369-1.37-.546-.808-.865-1.783-.865-2.833V10.763H21.339v6.183c0 2.798-2.269 5.067-5.068 5.067-1.75 0-3.292-.886-4.203-2.234-.546-.81-.865-1.784-.865-2.834v-5.989c-.982.167-1.931.433-2.824.813-.762.323-1.486.719-2.165 1.178-1.356.918-2.528 2.09-3.447 3.447-.459.678-.855 1.403-1.178 2.164-.485 1.143-.809 2.37-.94 3.65-.043.427-.066.86-.066 1.298v3.737h87.344zM94.46 18.772l-.004-.011c-.056-.14-.116-.277-.176-.414-.005-.009-.01-.017-.013-.026.067.149.131.3.193.451zM95.16 21.167v-.007c-.02-.105-.037-.211-.06-.316l-.001-.007c.023.11.041.22.062.33zM94.828 19.792v-.002c-.03-.098-.068-.192-.1-.29l-.009-.024c.036.106.076.209.11.316zM94.015 17.8l-.024-.048c-.069-.135-.134-.272-.207-.405-.153-.274-.318-.54-.49-.802-.11-.17-.23-.332-.35-.495l-.066-.09c.43.578.809 1.194 1.137 1.84zM95.328 22.345c-.01-.114-.025-.225-.038-.337v-.003c.013.113.027.226.038.34zM92.219 15.139c.175.199.342.405.504.615-.01-.014-.02-.029-.031-.042-.1-.128-.195-.258-.3-.382-.038-.046-.081-.088-.12-.133l-.053-.058z"/>
            <path fill="#1F2B7B" d="M95.387 27.243v-3.737c0-.32-.012-.637-.036-.951-.004-.055-.013-.108-.018-.163l-.005-.047c-.01-.114-.025-.227-.038-.34-.016-.127-.024-.256-.043-.382-.01-.06-.024-.118-.034-.178-.015-.094-.035-.186-.052-.278-.021-.11-.039-.22-.062-.33-.077-.354-.165-.703-.27-1.045-.034-.107-.074-.21-.11-.316-.08-.238-.165-.473-.259-.704-.062-.152-.126-.302-.193-.451-.08-.176-.165-.349-.252-.52-.328-.647-.707-1.263-1.137-1.841-.052-.069-.102-.138-.155-.206-.162-.21-.33-.416-.504-.615l-.015-.016c-1.18-1.339-2.637-2.43-4.277-3.184v15.304h7.46z"/>
            <path fill="#ECF0F9" d="M11.203 16.406h10.136V5.55c0-2.799-2.27-5.068-5.068-5.068-2.8 0-5.068 2.27-5.068 5.068v10.856z"/>
            <path fill="#CCD9EF" d="M11.203 16.406v.54c0 1.049.319 2.024.865 2.833.911 1.348 2.454 2.234 4.203 2.234 2.799 0 5.068-2.269 5.068-5.068v-.539H11.203z"/>
            <path fill="#ECF0F9" d="M67.17 5.55v10.856h10.137V5.55c0-1.01-.304-1.946-.813-2.737-.902-1.4-2.466-2.33-4.255-2.33-.982 0-1.89.29-2.666.773-1.437.895-2.402 2.477-2.402 4.294z"/>
            <path fill="#CCD9EF" d="M67.17 16.945c0 1.05.32 2.025.866 2.834.365.539.83 1.004 1.37 1.369.808.546 1.783.865 2.833.865 2.799 0 5.068-2.269 5.068-5.068v-.539H67.17v.54z"/>
            <path fill="#F69679" d="M87.968 62.132c-1.384.642-2.769 1.019-4.13 1.203-.399.054-.796.093-1.19.115-2.148.115-4.21-.23-6.077-.801-.992-.304-1.927-.67-2.792-1.062-3.52-1.597-5.847-3.627-5.847-3.627l-.058-.114c-.091-.18-.28-.567-.487-1.062-.461-1.103-.996-2.713-.641-3.602-.191-.12-.595-.148-.794.081-.784.902-.61 2.194-.61 2.194s-.734-.67-1.596-1.408c-.347-.297-.712-.6-1.062-.88-.844-.676-1.585-1.192-1.665-.99-.183.459 1.46 2.37 1.691 2.637l.046.053-.045-.04c-.384-.35-3.242-2.93-3.276-2.425-.014.209 0 0 2.415 3.045 0 0-2.908-1.944-2.681-1.326.285.777 2.162 2.588 2.162 2.588s-2.267-1.477-2.056-.984c.121.282 1.916 1.958 3.424 3.337 1.12 1.022 2.082 1.882 2.082 1.882s.194.266.559.705c.225.27.517.608.875.998 2.57 2.794 8.495 8.162 16.962 9.333.349.049.703.089 1.061.122 1.196.113 2.441.133 3.73.057v-10.03zM89.952 71.975c.044-.006.073-.021.111-.03-.623.084-1.245.148-1.863.204.576-.04 1.158-.092 1.752-.174z"/>
            <path fill="#226966" d="M92.789 59.539c-1.314.877-3.623 2.046-4.821 2.593V72.17l.232-.022c.618-.056 1.24-.12 1.863-.205.452-.061.904-.136 1.356-.225.218-2.106 1.366-2.862 1.367-5.158l.003-7.022z"/>
            <path fill="#586BB2" d="M92.76 95.26l.015-3.922-.017 4.202v.022l-.056 13.994c5.834-3.849 10.951-8.692 15.103-14.297H92.76z"/>
            <path fill="#1F2B7B" d="M92.775 91.536v.005-.203l-.016 3.921h15.046c.893-1.205 1.734-2.45 2.535-3.723H92.775zM107.85 49.02c.193.442.373.884.566 1.34.304.718.622 1.464.691 2.251.125 1.285-.373 2.528-.677 3.772-.025.094-.042.189-.06.283 2.233.52 5.583 1.514 7.68 3.133-.096-.176-.192-.35-.284-.53-.194-.372-.387-.759-.511-1.16-.636-2.03.29-4.24-.014-6.354-.042-.276-.097-.539-.18-.801-.483-1.59-1.644-2.957-3.08-3.813-1.301-.783-2.152-1.366-3.38-1.595-.174.96-.628 1.705-1.177 2.474l.426 1z"/>
            <path fill="#3ABAB4" d="M106.129 56.217c.193.031 1.02.169 2.148.428-1.173-.27-2.003-.405-2.148-.428zM99.178 56.392v-.008c-.043.011-.085.027-.127.039.041-.012.085-.019.127-.03zM92.775 91.541L92.775 91.536 92.775 91.536z"/>
            <path fill="#226966" d="M113.331 70.776c.698 3.142 1.349 7.95 1.785 11.438.878-2.168 1.633-4.398 2.254-6.684-.98-1.585-2.294-3.193-4.039-4.754z"/>
            <path fill="#FABCA3" d="M108.277 56.645c-1.127-.259-1.955-.397-2.148-.428l-.044-.007-.196-5.942-.017-.52.154-2.445c-.255-.16-.427-.505-.416-.904.008-.281.108-.528.256-.702-.014-.074-.03-.148-.046-.223l-.017.082h-.658l-.51-1.992.24 1.992h-.678c-.473-1.32-.747-3.76-.747-3.76.142 2.162-1.932 3.76-1.932 3.76H96.29c-.007.048-.024.094-.03.143-.15 1.227-.212 2.683.037 4.008.319 1.692 1.145 3.17 2.944 3.68 0 0 1.492.535 3.583-.841 0 0-1.18 2.399-3.61 3.248l.027-2.407-.063 2.997v.008c-.042.012-.086.019-.127.031l-.094.029c-.314.093-.624.195-.93.308.431 2.762 5.763 5.65 10.254-.114l-.004-.001z"/>
            <path fill="#1F2B7B" d="M95.383 44.387v5.082c0 .003.003.005.004.008.087.334.472.512.78.314l.13-.084c-.25-1.325-.188-2.781-.037-4.008.006-.05.023-.095.03-.143h5.228s2.074-1.598 1.932-3.76c0 0 .274 2.44.747 3.76h.678l-.24-1.992.51 1.992h.658l.017-.082c.015.075.032.149.046.223.138-.16.317-.26.514-.255.409.012.728.46.712 1-.016.54-.36.968-.77.956-.106-.003-.205-.038-.296-.095l-.154 2.445.017.52c.512-.873 1.056-1.577 1.535-2.248.549-.77 1.003-1.515 1.176-2.474.05-.274.078-.565.078-.88 0-1.554.352-3.498-.417-4.676-1.205-1.847-3.993-2.548-6.237-2.548-3.573 0-6.478 3.06-6.637 6.896 0 .017-.003.032-.004.049z"/>
            <path fill="#F69679" d="M99.213 55.794c2.432-.85 3.61-3.248 3.61-3.248-2.09 1.376-3.582.84-3.582.84l-.028 2.408z"/>
            <path fill="#FABCA3" d="M105.61 46.399c-.011.399.161.745.416.904.09.057.19.092.297.095.409.012.753-.416.769-.957.016-.54-.303-.987-.712-1-.197-.005-.376.095-.514.256-.148.174-.248.42-.256.702z"/>
            <path fill="#3ABAB4" d="M95.403 76.237c2.226 0 4.03-2.166 4.03-4.838 0-2.671-6.647-7.066-6.647-4.84v.002c-.001 2.296-1.15 3.052-1.367 5.158-.022.219-.045.436-.045.687 0 1.463.552 2.458 1.408 3.072.706.507 1.615.759 2.621.759z"/>
            <path fill="#FABCA3" d="M119.204 62.84c.057.066.114.13.17.197-.05-.058-.093-.117-.143-.174-.01-.01-.018-.014-.027-.024zM113.326 70.763l-.035-.023.04.036c1.745 1.561 3.06 3.169 4.039 4.754.925-3.405 1.55-6.93 1.856-10.55-2.502 1.67-4.07 3.246-5.9 5.783z"/>
            <path fill="#3ABAB4" d="M116.671 60.337c-.191-.186-.398-.366-.621-.538-2.097-1.619-5.447-2.613-7.68-3.133l-.09-.02c-4.49 5.764-9.822 2.876-10.253.114.306-.113.616-.215.93-.308-1.254.364-2.433.915-3.57 1.548-.61.34-1.208.7-1.799 1.068-.118.074-.692.404-.8.47l-.002 7.023v-.003c0-2.225 6.647 2.17 6.647 4.841 0 2.672-1.804 4.838-4.03 4.838-1.006 0-1.915-.252-2.621-.759l-.007 15.86v.198h17.565c1.854-2.944 3.455-6.06 4.776-9.322-.436-3.487-1.087-8.296-1.785-11.438l-.04-.036.035.023c1.83-2.537 3.398-4.114 5.9-5.783.055-.646.114-1.29.148-1.943l-.17-.198c-.767-.898-1.587-1.753-2.533-2.502zm-6.24 9.12c0 .958-.8 1.653-1.904 1.653-1.123 0-1.97-.71-1.97-1.652v-.964c-.616-.082-.984-.596-.984-1.237v-.636h.816v.34h-.482v.296c0 .501.315.909.817.909.501 0 .858-.408.858-.91v-.296h-.476v-.339h.816v.636c.003.332-.14.672-.372.907-.186.188-.358.282-.615.325v.969c0 .76.67 1.312 1.592 1.312.898 0 1.526-.54 1.526-1.312v-.97h.378v.97zm-.177-1.41c-.405 0-.734-.331-.734-.738 0-.405.33-.734.734-.734.404 0 .734.33.734.734 0 .407-.33.737-.734.737z"/>
            <path fill="#3ABAB4" d="M110.254 66.915c-.22 0-.398.179-.398.398 0 .219.179.397.398.397.219 0 .397-.18.397-.402 0-.216-.178-.393-.397-.393z"/>
            <path fill="#FFF" d="M110.053 68.489v.969c0 .773-.628 1.312-1.526 1.312-.923 0-1.592-.551-1.592-1.312v-.97c.257-.042.429-.136.615-.324.233-.235.375-.575.372-.907v-.636h-.816v.34h.476v.296c0 .501-.357.909-.858.909-.502 0-.817-.408-.817-.91v-.296h.482v-.339h-.816v.636c0 .641.368 1.155.984 1.237v.964c0 .942.847 1.652 1.97 1.652 1.103 0 1.904-.695 1.904-1.652v-.97h-.378zM110.254 66.575c-.405 0-.734.33-.734.734 0 .407.33.737.734.737.404 0 .734-.33.734-.737 0-.405-.33-.734-.734-.734zm0 1.135c-.22 0-.398-.178-.398-.397 0-.22.179-.398.398-.398.219 0 .397.177.397.393 0 .222-.178.402-.397.402z"/>
        </g>
        <path fill="#FFF" d="M37 35H61V54H37z"/>
        <path fill="#3ABAB4" fill-rule="nonzero" d="M37 40.41v13.909c0 1.812 1.474 3.285 3.285 3.285H55.27c1.812 0 3.285-1.473 3.285-3.285v-5.607l-1.062 1.062v4.545c0 1.226-.997 2.223-2.223 2.223H40.285c-1.225 0-2.223-.997-2.223-2.223v-13.91c0-1.226.998-2.223 2.223-2.223H55.27c1.226 0 2.223.997 2.223 2.223v.263l-5.833 5.834c-.83.829-2.174.829-3.004 0l-4.76-4.76-3.754 3.754 8.514 8.515c.83.83 2.174.83 3.004 0l17.26-17.26L65.164 33l-6.694 6.694c-.328-1.468-1.636-2.57-3.201-2.57H40.285c-1.811 0-3.285 1.474-3.285 3.285z"/>
    </g>
</svg>
