<svg class="animated" id="freepik_stories-confirmed" xmlns="http://www.w3.org/2000/svg" viewBox="0 0 500 500" version="1.1" xmlns:xlink="http://www.w3.org/1999/xlink" xmlns:svgjs="http://svgjs.com/svgjs"><style>svg#freepik_stories-confirmed:not(.animated) .animable {opacity: 0;}svg#freepik_stories-confirmed.animated #freepik--background-complete--inject-160 {animation: 1s 1 forwards cubic-bezier(.36,-0.01,.5,1.38) slideLeft;animation-delay: 0s;}svg#freepik_stories-confirmed.animated #freepik--Shadow--inject-160 {animation: 1s 1 forwards cubic-bezier(.36,-0.01,.5,1.38) slideLeft;animation-delay: 0s;}svg#freepik_stories-confirmed.animated #freepik--Smartphone--inject-160 {animation: 1s 1 forwards cubic-bezier(.36,-0.01,.5,1.38) slideUp;animation-delay: 0s;}svg#freepik_stories-confirmed.animated #freepik--Character--inject-160 {animation: 1s 1 forwards cubic-bezier(.36,-0.01,.5,1.38) fadeIn;animation-delay: 0s;}            @keyframes slideLeft {                0% {                    opacity: 0;                    transform: translateX(-30px);                }                100% {                    opacity: 1;                    transform: translateX(0);                }            }                    @keyframes slideUp {                0% {                    opacity: 0;                    transform: translateY(30px);                }                100% {                    opacity: 1;                    transform: inherit;                }            }                    @keyframes fadeIn {                0% {                    opacity: 0;                }                100% {                    opacity: 1;                }            }        </style><g id="freepik--background-complete--inject-160" class="animable" style="transform-origin: 250px 228.23px;"><rect y="382.4" width="500" height="0.25" style="fill: rgb(235, 235, 235); transform-origin: 250px 382.525px;" id="el1a85wcmfpdh" class="animable"></rect><path d="M237,337.8H43.91a5.71,5.71,0,0,1-5.7-5.71V60.66A5.71,5.71,0,0,1,43.91,55H237a5.71,5.71,0,0,1,5.71,5.71V332.09A5.71,5.71,0,0,1,237,337.8ZM43.91,55.2a5.46,5.46,0,0,0-5.45,5.46V332.09a5.46,5.46,0,0,0,5.45,5.46H237a5.47,5.47,0,0,0,5.46-5.46V60.66A5.47,5.47,0,0,0,237,55.2Z" style="fill: rgb(235, 235, 235); transform-origin: 140.46px 196.4px;" id="elyji73kecfto" class="animable"></path><path d="M453.31,337.8H260.21a5.72,5.72,0,0,1-5.71-5.71V60.66A5.72,5.72,0,0,1,260.21,55h193.1A5.71,5.71,0,0,1,459,60.66V332.09A5.71,5.71,0,0,1,453.31,337.8ZM260.21,55.2a5.47,5.47,0,0,0-5.46,5.46V332.09a5.47,5.47,0,0,0,5.46,5.46h193.1a5.47,5.47,0,0,0,5.46-5.46V60.66a5.47,5.47,0,0,0-5.46-5.46Z" style="fill: rgb(235, 235, 235); transform-origin: 356.75px 196.4px;" id="elih9wr26lkij" class="animable"></path><rect x="423.9" y="398.49" width="26" height="0.25" style="fill: rgb(235, 235, 235); transform-origin: 436.9px 398.615px;" id="eloq0cisfq1l" class="animable"></rect><rect x="311" y="401.21" width="45.03" height="0.25" style="fill: rgb(235, 235, 235); transform-origin: 333.515px 401.335px;" id="eleq353hfmom" class="animable"></rect><rect x="362.11" y="389.21" width="60.79" height="0.25" style="fill: rgb(235, 235, 235); transform-origin: 392.505px 389.335px;" id="elm5owh9noyup" class="animable"></rect><rect x="52.46" y="390.89" width="19.23" height="0.25" style="fill: rgb(235, 235, 235); transform-origin: 62.075px 391.015px;" id="elwwr2er1qay" class="animable"></rect><rect x="80.6" y="390.89" width="55.29" height="0.25" style="fill: rgb(235, 235, 235); transform-origin: 108.245px 391.015px;" id="elgzn5gukhybw" class="animable"></rect><rect x="169.67" y="395.11" width="74.47" height="0.25" style="fill: rgb(235, 235, 235); transform-origin: 206.905px 395.235px;" id="elc0ijkq163o" class="animable"></rect><g id="el8gwu41nupnu"><rect x="378.6" y="229.22" width="8" height="148.05" style="fill: rgb(240, 240, 240); transform-origin: 382.6px 303.245px; transform: rotate(180deg);" class="animable" id="elckgw1fb184p"></rect></g><g id="ela9n9ciapmp"><rect x="340.19" y="377.28" width="44.29" height="5.11" style="fill: rgb(240, 240, 240); transform-origin: 362.335px 379.835px; transform: rotate(180deg);" class="animable" id="elh9ud2e5zqwp"></rect></g><rect x="338.08" y="229.22" width="40.52" height="148.05" style="fill: rgb(245, 245, 245); transform-origin: 358.34px 303.245px;" id="elfp1m5v6wfgi" class="animable"></rect><rect x="342.4" y="306.32" width="31.88" height="26.44" style="fill: rgb(240, 240, 240); transform-origin: 358.34px 319.54px;" id="el1ur6m14hno6" class="animable"></rect><rect x="342.4" y="340.92" width="31.88" height="26.44" style="fill: rgb(240, 240, 240); transform-origin: 358.34px 354.14px;" id="eljm20n7oi0n" class="animable"></rect><g id="el2xjs766euhh"><rect x="352.92" y="317.72" width="10.85" height="3.63" rx="1.18" style="fill: rgb(245, 245, 245); transform-origin: 358.345px 319.535px; transform: rotate(180deg);" class="animable" id="ellhvfc6npi6l"></rect></g><g id="elikayatza6kn"><rect x="352.92" y="352.32" width="10.85" height="3.63" rx="1.18" style="fill: rgb(245, 245, 245); transform-origin: 358.345px 354.135px; transform: rotate(180deg);" class="animable" id="el0l8u8gofzja"></rect></g><rect x="342.4" y="237.39" width="31.88" height="26.44" style="fill: rgb(240, 240, 240); transform-origin: 358.34px 250.61px;" id="elba8by85lmet" class="animable"></rect><rect x="342.4" y="271.71" width="31.88" height="26.44" style="fill: rgb(240, 240, 240); transform-origin: 358.34px 284.93px;" id="el6k6cmdinjos" class="animable"></rect><g id="eltgf8l6f8t7"><rect x="352.92" y="248.79" width="10.85" height="3.63" rx="1.18" style="fill: rgb(245, 245, 245); transform-origin: 358.345px 250.605px; transform: rotate(-180deg);" class="animable" id="elu7et5osnvx"></rect></g><g id="eljn94pbxeg8c"><rect x="352.92" y="283.12" width="10.85" height="3.63" rx="1.18" style="fill: rgb(245, 245, 245); transform-origin: 358.345px 284.935px; transform: rotate(-180deg);" class="animable" id="el4myku8nur8f"></rect></g><g id="el3naxdrtz1f5"><rect x="422.93" y="229.22" width="24" height="148.05" style="fill: rgb(240, 240, 240); transform-origin: 434.93px 303.245px; transform: rotate(180deg);" class="animable" id="el1n8tebu80pv"></rect></g><g id="eljem7lyedrn"><rect x="384.53" y="377.28" width="59.95" height="5.11" style="fill: rgb(240, 240, 240); transform-origin: 414.505px 379.835px; transform: rotate(180deg);" class="animable" id="eltdvdbf8zvz"></rect></g><rect x="382.42" y="229.22" width="40.52" height="148.05" style="fill: rgb(245, 245, 245); transform-origin: 402.68px 303.245px;" id="elpkigkhno319" class="animable"></rect><rect x="386.74" y="306.32" width="31.88" height="26.44" style="fill: rgb(240, 240, 240); transform-origin: 402.68px 319.54px;" id="el4ynts2ew5vc" class="animable"></rect><rect x="386.74" y="340.92" width="31.88" height="26.44" style="fill: rgb(240, 240, 240); transform-origin: 402.68px 354.14px;" id="elvi2k72v2vxh" class="animable"></rect><g id="eltdzl3uzgle"><rect x="397.25" y="317.72" width="10.85" height="3.63" rx="1.18" style="fill: rgb(245, 245, 245); transform-origin: 402.675px 319.535px; transform: rotate(180deg);" class="animable" id="elyq72olrdo2r"></rect></g><g id="el7xm3hvhmpy4"><rect x="397.25" y="352.32" width="10.85" height="3.63" rx="1.18" style="fill: rgb(245, 245, 245); transform-origin: 402.675px 354.135px; transform: rotate(180deg);" class="animable" id="elr6lef4bjf0j"></rect></g><rect x="386.74" y="237.39" width="31.88" height="26.44" style="fill: rgb(240, 240, 240); transform-origin: 402.68px 250.61px;" id="el1fkbjtaakpu" class="animable"></rect><rect x="386.74" y="271.71" width="31.88" height="26.44" style="fill: rgb(240, 240, 240); transform-origin: 402.68px 284.93px;" id="elajj8vcmy1zl" class="animable"></rect><g id="eluevcx8nqosh"><rect x="397.25" y="248.79" width="10.85" height="3.63" rx="1.18" style="fill: rgb(245, 245, 245); transform-origin: 402.675px 250.605px; transform: rotate(-180deg);" class="animable" id="eled5de8if3ir"></rect></g><g id="elph325risdbn"><rect x="397.25" y="283.12" width="10.85" height="3.63" rx="1.18" style="fill: rgb(245, 245, 245); transform-origin: 402.675px 284.935px; transform: rotate(-180deg);" class="animable" id="elahpv3vkakjv"></rect></g><g id="elljvn4521mq"><rect x="292.63" y="80.06" width="134.71" height="118.26" style="fill: rgb(230, 230, 230); transform-origin: 359.985px 139.19px; transform: rotate(180deg);" class="animable" id="elfz95ql1yamw"></rect></g><path d="M278.19,75.46H436.06a1.34,1.34,0,0,1,1.34,1.34h0a1.34,1.34,0,0,1-1.34,1.33H278.19a1.34,1.34,0,0,1-1.33-1.33h0A1.34,1.34,0,0,1,278.19,75.46Z" style="fill: rgb(230, 230, 230); transform-origin: 357.13px 76.795px;" id="elvit0qkdn4ws" class="animable"></path><g id="elklmwurqd84s"><rect x="286.91" y="80.06" width="137.76" height="118.26" style="fill: rgb(240, 240, 240); transform-origin: 355.79px 139.19px; transform: rotate(180deg);" class="animable" id="elxbudta67q9q"></rect></g><polygon points="292.63 198.32 427.34 198.32 427.34 202.11 288.69 202.11 292.63 198.32" style="fill: rgb(230, 230, 230); transform-origin: 358.015px 200.215px;" id="eljfi82yljxv" class="animable"></polygon><polygon points="277.39 198.32 415.15 198.32 411.21 202.11 273.45 202.11 277.39 198.32" style="fill: rgb(240, 240, 240); transform-origin: 344.3px 200.215px;" id="elkhxlkcy12o" class="animable"></polygon><g id="elkk6g8y9e4fq"><rect x="304.66" y="78.31" width="102.26" height="121.75" style="fill: rgb(250, 250, 250); transform-origin: 355.79px 139.185px; transform: rotate(90deg);" class="animable" id="elkp202x3nnvb"></rect></g><polygon points="389.03 190.32 342.06 88.06 319.89 88.06 366.86 190.32 389.03 190.32" style="fill: rgb(255, 255, 255); transform-origin: 354.46px 139.19px;" id="elhzgbp4ofrjs" class="animable"></polygon><polygon points="362.1 190.32 315.13 88.06 306.48 88.06 353.45 190.32 362.1 190.32" style="fill: rgb(255, 255, 255); transform-origin: 334.29px 139.19px;" id="elismfg837fqe" class="animable"></polygon><g id="elgn5ez97br1q"><rect x="244.3" y="138.68" width="102.26" height="1.02" style="fill: rgb(230, 230, 230); transform-origin: 295.43px 139.19px; transform: rotate(90deg);" class="animable" id="el3f8utyklejv"></rect></g><g id="elsu7cmdpu8jn"><g style="opacity: 0.4; transform-origin: 409.69px 121.865px;" class="animable" id="el3iq3vqewjda"><g id="el3ucljzhsgwg"><rect x="416.58" y="73.07" width="13.77" height="97.59" style="fill: rgb(240, 240, 240); transform-origin: 423.465px 121.865px; transform: rotate(180deg);" class="animable" id="ela4spdzatkwi"></rect></g><g id="ela233dv722rv"><rect x="411.21" y="73.07" width="10.73" height="97.59" style="fill: rgb(230, 230, 230); transform-origin: 416.575px 121.865px; transform: rotate(180deg);" class="animable" id="eljy54i24a5m"></rect></g><g id="elynipo2e8k1q"><rect x="402.8" y="73.07" width="13.77" height="97.59" style="fill: rgb(240, 240, 240); transform-origin: 409.685px 121.865px; transform: rotate(180deg);" class="animable" id="elvft50nz5nr"></rect></g><g id="elfzpv3e4lj46"><rect x="397.44" y="73.07" width="10.73" height="97.59" style="fill: rgb(230, 230, 230); transform-origin: 402.805px 121.865px; transform: rotate(180deg);" class="animable" id="elcwifzxufzd9"></rect></g><g id="elohvtb25okgj"><rect x="389.03" y="73.07" width="13.77" height="97.59" style="fill: rgb(240, 240, 240); transform-origin: 395.915px 121.865px; transform: rotate(180deg);" class="animable" id="el5ae00u5uni5"></rect></g></g></g><g id="ele5wn3aekx2b"><g style="opacity: 0.4; transform-origin: 296.075px 121.865px;" class="animable" id="el64q4iaehsiw"><g id="elbxuifzli38b"><rect x="300.04" y="73.07" width="7.94" height="97.59" style="fill: rgb(240, 240, 240); transform-origin: 304.01px 121.865px; transform: rotate(180deg);" class="animable" id="elwwxsmxapnxf"></rect></g><g id="el55qmim8c30w"><rect x="296.95" y="73.07" width="6.18" height="97.59" style="fill: rgb(230, 230, 230); transform-origin: 300.04px 121.865px; transform: rotate(180deg);" class="animable" id="elf80lscnmz4r"></rect></g><g id="el070j54836is9"><rect x="292.11" y="73.07" width="7.94" height="97.59" style="fill: rgb(240, 240, 240); transform-origin: 296.08px 121.865px; transform: rotate(180deg);" class="animable" id="elpy3mg7v5ib"></rect></g><g id="el6awn2zkglrx"><rect x="289.01" y="73.07" width="6.18" height="97.59" style="fill: rgb(230, 230, 230); transform-origin: 292.1px 121.865px; transform: rotate(180deg);" class="animable" id="elyoo2n37xmm"></rect></g><g id="eljxlwvgs3nk"><rect x="284.17" y="73.07" width="7.94" height="97.59" style="fill: rgb(240, 240, 240); transform-origin: 288.14px 121.865px; transform: rotate(180deg);" class="animable" id="elkq8sz9t0qba"></rect></g></g></g><polygon points="164.22 151.7 183.28 151.7 181.03 103.36 164.22 103.36 164.22 151.7" style="fill: rgb(245, 245, 245); transform-origin: 173.75px 127.53px;" id="elennk1lvcdv" class="animable"></polygon><polygon points="194.05 154.31 198.16 175.78 194.05 175.78 168.84 154.31 194.05 154.31" style="fill: rgb(245, 245, 245); transform-origin: 183.5px 165.045px;" id="els8wpvogowg" class="animable"></polygon><polygon points="198.16 154.31 198.16 175.78 172.95 154.31 198.16 154.31" style="fill: rgb(230, 230, 230); transform-origin: 185.555px 165.045px;" id="elac9pc7s212u" class="animable"></polygon><polygon points="95.18 154.31 99.29 175.78 95.18 175.78 69.97 154.31 95.18 154.31" style="fill: rgb(245, 245, 245); transform-origin: 84.63px 165.045px;" id="el0qp8j6jjufxl" class="animable"></polygon><polygon points="99.29 154.31 99.29 175.78 74.08 154.31 99.29 154.31" style="fill: rgb(230, 230, 230); transform-origin: 86.685px 165.045px;" id="else4mdm0qnun" class="animable"></polygon><rect x="189.25" y="151.77" width="27.42" height="3.1" style="fill: rgb(230, 230, 230); transform-origin: 202.96px 153.32px;" id="el09k1bv0op4r" class="animable"></rect><g id="elyrb0bgvoue"><rect x="52.93" y="151.77" width="136.32" height="3.1" style="fill: rgb(245, 245, 245); transform-origin: 121.09px 153.32px; transform: rotate(180deg);" class="animable" id="eluqubnhii9f"></rect></g><polygon points="136.21 151.7 177.13 151.7 182.19 93.12 141.27 93.12 136.21 151.7" style="fill: rgb(230, 230, 230); transform-origin: 159.2px 122.41px;" id="el1ogekfn284v" class="animable"></polygon><polygon points="134.09 151.7 175.01 151.7 180.07 93.12 139.15 93.12 134.09 151.7" style="fill: rgb(240, 240, 240); transform-origin: 157.08px 122.41px;" id="elg0wzlsib8gc" class="animable"></polygon><polygon points="171.58 145.21 176.21 99.6 142.59 99.6 137.96 145.21 171.58 145.21" style="fill: rgb(255, 255, 255); transform-origin: 157.085px 122.405px;" id="elmmjcsxr4fed" class="animable"></polygon><polygon points="117.89 151.7 131.02 151.7 129.47 118.41 117.89 118.41 117.89 151.7" style="fill: rgb(224, 224, 224); transform-origin: 124.455px 135.055px;" id="el4vxsyrc3h7l" class="animable"></polygon><polygon points="98.61 151.7 126.78 151.7 130.27 111.36 102.09 111.36 98.61 151.7" style="fill: rgb(240, 240, 240); transform-origin: 114.44px 131.53px;" id="el6ebt7phsqxe" class="animable"></polygon><polygon points="97.15 151.7 125.33 151.7 128.81 111.36 100.63 111.36 97.15 151.7" style="fill: rgb(245, 245, 245); transform-origin: 112.98px 131.53px;" id="eln3sp71y1q" class="animable"></polygon><polygon points="122.96 147.23 126.14 115.83 103 115.83 99.81 147.23 122.96 147.23" style="fill: rgb(224, 224, 224); transform-origin: 112.975px 131.53px;" id="el1fana6k46hc" class="animable"></polygon><path d="M262.36,236.44a5.67,5.67,0,1,1-6.11-5.18A5.66,5.66,0,0,1,262.36,236.44Z" style="fill: rgb(224, 224, 224); transform-origin: 256.71px 236.911px;" id="elzw8s68co4bl" class="animable"></path><path d="M272.89,239.4a5.67,5.67,0,1,1-6.11-5.18A5.67,5.67,0,0,1,272.89,239.4Z" style="fill: rgb(224, 224, 224); transform-origin: 267.24px 239.871px;" id="el3tqu4rxxnl2" class="animable"></path><path d="M280.5,236a5.67,5.67,0,1,1-6.11-5.19A5.68,5.68,0,0,1,280.5,236Z" style="fill: rgb(224, 224, 224); transform-origin: 274.849px 236.462px;" id="elc7bx4en2u5" class="animable"></path><path d="M288.53,238.12a5.66,5.66,0,1,1-6.11-5.19A5.66,5.66,0,0,1,288.53,238.12Z" style="fill: rgb(224, 224, 224); transform-origin: 282.888px 238.571px;" id="eliitp2t67cr" class="animable"></path><path d="M295.74,239s-.66,15.74-25.94,15.74-26-15.74-26-15.74Z" style="fill: rgb(240, 240, 240); transform-origin: 269.77px 246.87px;" id="el7a9s5eq1eqj" class="animable"></path><g id="elzku6aqb82ua"><rect x="59.88" y="254.77" width="9.19" height="127.63" style="fill: rgb(230, 230, 230); transform-origin: 64.475px 318.585px; transform: rotate(180deg);" class="animable" id="elu5307zss7r"></rect></g><g id="ela4vhupxp5ok"><rect x="57.42" y="254.77" width="5.41" height="127.63" style="fill: rgb(240, 240, 240); transform-origin: 60.125px 318.585px; transform: rotate(180deg);" class="animable" id="el6j359e71gb"></rect></g><rect x="55.75" y="254.77" width="130.46" height="9.57" style="fill: rgb(240, 240, 240); transform-origin: 120.98px 259.555px;" id="el17d4j9ssjyb" class="animable"></rect><g id="elw4uyccivus"><rect x="309.76" y="254.77" width="9.19" height="127.63" style="fill: rgb(230, 230, 230); transform-origin: 314.355px 318.585px; transform: rotate(180deg);" class="animable" id="elc3zgmlm28ba"></rect></g><g id="eljx6k02bctw"><rect x="308.04" y="254.77" width="5.41" height="127.63" style="fill: rgb(240, 240, 240); transform-origin: 310.745px 318.585px; transform: rotate(180deg);" class="animable" id="elrq6xmu8a81e"></rect></g><rect x="190.13" y="254.77" width="130.46" height="9.57" style="fill: rgb(230, 230, 230); transform-origin: 255.36px 259.555px;" id="elzgviymqj3b" class="animable"></rect><g id="elnjnklx7gqbn"><rect x="186.99" y="254.77" width="9.19" height="127.63" style="fill: rgb(230, 230, 230); transform-origin: 191.585px 318.585px; transform: rotate(180deg);" class="animable" id="elo175bwaxezk"></rect></g><g id="el8gg8pele6ox"><rect x="184.53" y="254.77" width="5.41" height="127.63" style="fill: rgb(240, 240, 240); transform-origin: 187.235px 318.585px; transform: rotate(180deg);" class="animable" id="elgwl50a9wns"></rect></g><polygon points="217.14 212.32 149.03 212.32 136.89 252.54 205.01 252.54 217.14 212.32" style="fill: rgb(230, 230, 230); transform-origin: 177.015px 232.43px;" id="elqx2syg9rlfb" class="animable"></polygon><polygon points="205.01 252.54 204.74 254.77 136.62 254.77 136.89 252.54 205.01 252.54" style="fill: rgb(230, 230, 230); transform-origin: 170.815px 253.655px;" id="elq9ty6zyemc" class="animable"></polygon><polygon points="215.05 212.32 146.93 212.32 134.8 252.54 202.91 252.54 215.05 212.32" style="fill: rgb(240, 240, 240); transform-origin: 174.925px 232.43px;" id="elew8tj1toxrt" class="animable"></polygon><polygon points="201.58 250.71 212.6 214.16 148.27 214.16 137.24 250.71 201.58 250.71" style="fill: rgb(255, 255, 255); transform-origin: 174.92px 232.435px;" id="elrh816s38yo" class="animable"></polygon><polygon points="185.17 252.54 184.89 254.77 109.88 254.77 110.15 252.54 185.17 252.54" style="fill: rgb(240, 240, 240); transform-origin: 147.525px 253.655px;" id="elddh4ktwolxv" class="animable"></polygon></g><g id="freepik--Shadow--inject-160" class="animable" style="transform-origin: 250px 416.24px;"><ellipse id="freepik--path--inject-160" cx="250" cy="416.24" rx="193.89" ry="11.32" style="fill: rgb(245, 245, 245); transform-origin: 250px 416.24px;" class="animable"></ellipse></g><g id="freepik--Smartphone--inject-160" class="animable" style="transform-origin: 307.075px 261.545px;"><path d="M377.55,109.15H262.46a15.87,15.87,0,0,0-15.56,14.62L229,399.33a13.56,13.56,0,0,0,13.67,14.61H357.8a15.86,15.86,0,0,0,15.56-14.61L386.2,201.27a3,3,0,0,0,2-2.57l2.3-35.44a2.54,2.54,0,0,0-1.66-2.57l2.39-36.92A13.57,13.57,0,0,0,377.55,109.15Z" style="fill: #F58232; transform-origin: 310.115px 261.545px;" id="elykzvxgxrmx" class="animable"></path><path d="M237.58,180.5h2.26a2.82,2.82,0,0,0,2.76-2.59l1-14.8a2.41,2.41,0,0,0-2.43-2.59h-2.25a2.81,2.81,0,0,0-2.76,2.59l-1,14.8A2.41,2.41,0,0,0,237.58,180.5Z" style="fill: #F58232; transform-origin: 239.38px 170.51px;" id="elw4aguee3cv" class="animable"></path><path d="M235.87,206.92h2.25a2.83,2.83,0,0,0,2.77-2.6l1-14.79a2.41,2.41,0,0,0-2.43-2.59h-2.25a2.82,2.82,0,0,0-2.77,2.59l-1,14.79A2.4,2.4,0,0,0,235.87,206.92Z" style="fill: #F58232; transform-origin: 237.664px 196.93px;" id="elu7kzi8lxbgd" class="animable"></path><path d="M351.68,413.94H236.59a13.56,13.56,0,0,1-13.67-14.61l17.86-275.56a15.88,15.88,0,0,1,15.57-14.62H371.43a13.57,13.57,0,0,1,13.67,14.62L367.24,399.33A15.86,15.86,0,0,1,351.68,413.94Z" style="fill: rgb(38, 50, 56); transform-origin: 304.01px 261.545px;" id="eli64jam26nzq" class="animable"></path><g id="elieedm4hzui"><ellipse cx="295.34" cy="395.36" rx="10.16" ry="9.52" style="fill: rgb(255, 255, 255); opacity: 0.2; transform-origin: 295.34px 395.36px; transform: rotate(-44.07deg);" class="animable" id="el84xb5sfqz3w"></ellipse></g><path d="M362.08,378.17H231.25A3.26,3.26,0,0,1,228,374.7l15.31-236.32a3.27,3.27,0,0,1,3.25-3H377.4a3.26,3.26,0,0,1,3.25,3.47L365.33,375.12A3.26,3.26,0,0,1,362.08,378.17Z" style="fill: rgb(255, 255, 255); transform-origin: 304.325px 256.775px;" id="elgllp83pnm5u" class="animable"></path><g id="el6315xuw69d3"><ellipse cx="301.54" cy="260.18" rx="36.88" ry="34.56" style="fill: #F58232; opacity: 0.2; transform-origin: 301.54px 260.18px; transform: rotate(-44.07deg);" class="animable" id="el99anse173qg"></ellipse></g><g id="el8eeiwu72vwp"><path d="M298,315.26c-30.37,0-53.48-24.71-51.51-55.08s28.27-55.08,58.65-55.08,53.48,24.71,51.51,55.08S328.34,315.26,298,315.26ZM305,206.1c-29.82,0-55.65,24.26-57.58,54.08s20.75,54.08,50.57,54.08,55.65-24.26,57.59-54.08S334.86,206.1,305,206.1Z" style="fill: #F58232; opacity: 0.2; transform-origin: 301.57px 260.18px;" class="animable" id="elfm9xigdssao"></path></g><path d="M293,277.49l-3-5.79c-6.5-12.61-21.47-23.88-26.7-27.16l4.94-7.39c6.19,3.88,18.56,13.49,26.32,24.91,14.35-17,34.63-34.51,61.78-53.4l4.63,7c-29,20.18-49.87,38.63-63.75,56.41Z" style="fill: #F58232; transform-origin: 312.135px 243.075px;" id="elq3ni1s78sc" class="animable"></path><g id="eldxghdcxdhvq"><ellipse cx="288.9" cy="122.1" rx="4.11" ry="3.86" style="fill: rgb(255, 255, 255); opacity: 0.2; transform-origin: 288.9px 122.1px; transform: rotate(-44.07deg);" class="animable" id="elxsuyw5g8s6"></ellipse></g><g id="el1pp3jvrxthl"><path d="M302.91,118.12H336a3.69,3.69,0,0,1,3.72,4h0a4.33,4.33,0,0,1-4.24,4H302.4a3.71,3.71,0,0,1-3.73-4h0A4.33,4.33,0,0,1,302.91,118.12Z" style="fill: rgb(255, 255, 255); opacity: 0.2; transform-origin: 319.196px 122.12px;" class="animable" id="el31d5yyzh9or"></path></g></g><g id="freepik--Character--inject-160" class="animable" style="transform-origin: 194.033px 278.702px;"><path d="M179.74,192c-1.69,1.73-3.5,3.64-5.17,5.54s-3.34,3.85-4.91,5.85-3,4-4.48,6.11l-1,1.57-1,1.59c-.33.53-.63,1.07-.92,1.62l-.8,1.47a8.23,8.23,0,0,0-.55,2.63,25.24,25.24,0,0,0,0,3.48,68.16,68.16,0,0,0,1,7.45c.44,2.52,1,5.05,1.59,7.57s1.24,5.07,1.9,7.55l-3.7,1.39A108.38,108.38,0,0,1,156,230.7a61.64,61.64,0,0,1-1.77-8.13,33,33,0,0,1-.31-4.42,14.31,14.31,0,0,1,.87-5.11c.23-.56.35-.78.51-1.12l.46-.95c.3-.63.61-1.26,1-1.87l1-1.84,1.06-1.79a76.28,76.28,0,0,1,4.61-6.83c1.64-2.19,3.34-4.32,5.13-6.38s3.6-4,5.68-6Z" style="fill: rgb(181, 91, 82); transform-origin: 166.829px 216.04px;" id="elxh7usw7175" class="animable"></path><path d="M180.17,180c-5.42.24-10.57,9.24-10.57,9.24l7.16,14.61s9.7-8.08,9.82-16C186.66,182.66,185.5,179.75,180.17,180Z" style="fill: #F58232; transform-origin: 178.092px 191.918px;" id="elmpumxfxiu98" class="animable"></path><g id="elrkb2lcsshd"><path d="M180.17,180c-5.42.24-10.57,9.24-10.57,9.24l7.16,14.61s9.7-8.08,9.82-16C186.66,182.66,185.5,179.75,180.17,180Z" style="fill: rgb(255, 255, 255); opacity: 0.7; transform-origin: 178.092px 191.918px;" class="animable" id="ellcfp4tjxax"></path></g><g id="eloc4heuy52h"><path d="M181.46,190.5c-1.58,2.39-2.34,8.59-2.58,11.35a33.13,33.13,0,0,0,6-7.91C183.81,191.27,182.5,188.93,181.46,190.5Z" style="opacity: 0.2; transform-origin: 181.88px 195.922px;" class="animable" id="eli3htie87zva"></path></g><path d="M164.33,242.91l6.59,2-4.39,4.44s-4.75-1.47-5.41-4.7Z" style="fill: rgb(181, 91, 82); transform-origin: 166.02px 246.13px;" id="elq7v1fobdgr" class="animable"></path><polygon points="174.91 249.94 173.8 254.19 166.53 249.31 170.92 244.87 174.91 249.94" style="fill: rgb(181, 91, 82); transform-origin: 170.72px 249.53px;" id="elmnmjyt50knp" class="animable"></polygon><path d="M218.27,162.65c-.21.59-.06,1.19.33,1.33s.87-.21,1.07-.8.06-1.2-.33-1.34S218.48,162.05,218.27,162.65Z" style="fill: rgb(38, 50, 56); transform-origin: 218.968px 162.91px;" id="eltj2jh8eweo" class="animable"></path><path d="M219.16,161.81l1.57.13S219.61,162.77,219.16,161.81Z" style="fill: rgb(38, 50, 56); transform-origin: 219.945px 162.042px;" id="eld7regayftpf" class="animable"></path><path d="M218.57,163.41a17.28,17.28,0,0,0,.8,4.58,2.73,2.73,0,0,1-2.25-.4Z" style="fill: rgb(160, 39, 36); transform-origin: 218.245px 165.744px;" id="elwrjo2yn5dt" class="animable"></path><path d="M220.21,160.34a.36.36,0,0,1-.3-.27A3.07,3.07,0,0,0,218.2,158a.37.37,0,0,1-.22-.47.36.36,0,0,1,.47-.22,3.78,3.78,0,0,1,2.18,2.63.37.37,0,0,1-.27.45Z" style="fill: rgb(38, 50, 56); transform-origin: 219.3px 158.838px;" id="elw42vc67x25o" class="animable"></path><path d="M197.73,165.16c.14,4.73-.34,13.24-4,15.65,0,0,.49,4.86,9,6.51,9.35,1.81,5.23-3.75,5.23-3.75-4.9-2.2-4.15-5.94-2.68-9.3Z" style="fill: rgb(181, 91, 82); transform-origin: 201.297px 176.421px;" id="elo9eutf3qsbd" class="animable"></path><path d="M225.52,197.53c.84,2.29,1.8,4.77,2.82,7.12s2,4.73,3.19,7,2.35,4.55,3.61,6.76c.65,1.09,1.3,2.18,2,3.22.34.54.69,1.06,1.06,1.55l.54.76.27.39.14.19.09.1a11,11,0,0,0,2.22,1.93,32.2,32.2,0,0,0,3.08,1.86c2.19,1.18,4.54,2.25,6.93,3.26s4.83,2,7.3,2.87,5,1.79,7.43,2.64l-.93,3.85a124.41,124.41,0,0,1-15.85-3.73,71.92,71.92,0,0,1-7.82-2.89,39.07,39.07,0,0,1-3.9-2,16.33,16.33,0,0,1-3.93-3.13l-.24-.27-.17-.21-.33-.41-.66-.84c-.45-.55-.88-1.11-1.28-1.68-.85-1.13-1.63-2.29-2.4-3.46a81.9,81.9,0,0,1-4.19-7.18c-1.27-2.45-2.47-4.92-3.57-7.44s-2.09-5-3-7.76Z" style="fill: rgb(181, 91, 82); transform-origin: 242.065px 219.28px;" id="elirses41v46f" class="animable"></path><path d="M264.88,237.16l5.9-2.28-.29,6.81s-4.78,1.27-7-1.14Z" style="fill: rgb(181, 91, 82); transform-origin: 267.135px 238.452px;" id="eld5431ykm1pn" class="animable"></path><polygon points="275.23 237.22 277.25 241.57 270.49 241.69 270.78 234.88 275.23 237.22" style="fill: rgb(181, 91, 82); transform-origin: 273.87px 238.285px;" id="elmhug8b8el9r" class="animable"></polygon><polygon points="177.38 407.89 185.19 408.47 187.51 390.54 179.7 389.96 177.38 407.89" style="fill: rgb(181, 91, 82); transform-origin: 182.445px 399.215px;" id="elerv76fftdy9" class="animable"></polygon><polygon points="115.52 367.33 120.62 373.39 135.76 363.66 130.66 357.6 115.52 367.33" style="fill: rgb(181, 91, 82); transform-origin: 125.64px 365.495px;" id="el9vbb3zqok3d" class="animable"></polygon><path d="M123,372.61l-4.11-7.9a.62.62,0,0,0-.76-.32l-6.53,2.26a1.25,1.25,0,0,0-.63,1.76c1.48,2.73,2.33,4,4.13,7.45,1.12,2.13,2.53,5.37,4.06,8.32s4.45,1.64,4.07.27c-1.72-6.11-.58-7.8,0-10.45A2.14,2.14,0,0,0,123,372.61Z" style="fill: rgb(38, 50, 56); transform-origin: 117.04px 375.157px;" id="el09oszz3gvv1g" class="animable"></path><path d="M185.68,407.36H176.9a.63.63,0,0,0-.63.53l-1.18,6.94a1.22,1.22,0,0,0,1.21,1.39c3.07-.05,4.54-.23,8.4-.23,2.38,0,7.28.25,10.56.25s3.54-3.24,2.18-3.54c-6.09-1.31-8.45-3.13-10.47-4.86A1.93,1.93,0,0,0,185.68,407.36Z" style="fill: rgb(38, 50, 56); transform-origin: 186.646px 411.8px;" id="elkyf149617m" class="animable"></path><g id="ell5zl0sjnkd"><polygon points="187.51 390.54 186.22 400.51 178.44 399.73 179.7 389.97 187.51 390.54" style="opacity: 0.2; transform-origin: 182.975px 395.24px;" class="animable" id="elu4l5q1xh17a"></polygon></g><g id="el9jlwig5zpq7"><polygon points="130.66 357.6 135.76 363.66 129.49 367.69 124.2 361.75 130.66 357.6" style="opacity: 0.2; transform-origin: 129.98px 362.645px;" class="animable" id="elkonfmqu1x1d"></polygon></g><path d="M178,227.55l31.32,6.07c14.8-43.57,11.26-45,11.26-45a64.45,64.45,0,0,0-7.11-3.3l-.43-.16c-2-.73-2.42-.84-5.1-1.62-4.62-1.09-8.91-2-14.22-2.75l-1-.14c-1-.12-1.92-.22-2.84-.31-.62-.07-1.24-.11-1.83-.15l-2-.11c-3.42-.17-5.87-.12-5.87-.12C181.9,207.17,180.59,215,178,227.55Z" style="fill: #F58232; transform-origin: 199.475px 206.787px;" id="elqf3vchzhxu" class="animable"></path><g id="elkql8e8jz1qh"><path d="M178,227.55l31.32,6.07c14.8-43.57,11.26-45,11.26-45a64.45,64.45,0,0,0-7.11-3.3l-.43-.16c-2-.73-2.42-.84-5.1-1.62-4.62-1.09-8.91-2-14.22-2.75l-1-.14c-1-.12-1.92-.22-2.84-.31-.62-.07-1.24-.11-1.83-.15l-2-.11c-3.42-.17-5.87-.12-5.87-.12C181.9,207.17,180.59,215,178,227.55Z" style="fill: rgb(255, 255, 255); opacity: 0.7; transform-origin: 199.475px 206.787px;" class="animable" id="el6n477fm8xoh"></path></g><g id="el2fe6zpjvxqg"><path d="M216.08,198.79l-2.83-.46c0,3.73,1.42,10.13,2.8,14.2,1.17-4,2.08-7.29,2.77-10.06Z" style="opacity: 0.2; transform-origin: 216.035px 205.43px;" class="animable" id="elsmdnttnpdrf"></path></g><path d="M219.49,188.09c4.63,1.48,8,10.64,9.26,14.59l-9,10.57S210.53,200,212,195.89C213.44,191.61,217.25,187.36,219.49,188.09Z" style="fill: #F58232; transform-origin: 220.296px 200.629px;" id="el0q76egw2i7uq" class="animable"></path><g id="el2nixmz582in"><path d="M219.49,188.09c4.63,1.48,8,10.64,9.26,14.59l-9,10.57S210.53,200,212,195.89C213.44,191.61,217.25,187.36,219.49,188.09Z" style="fill: rgb(255, 255, 255); opacity: 0.7; transform-origin: 220.296px 200.629px;" class="animable" id="el69uwaskd1k8"></path></g><path d="M222.49,154.27c-.93,2.73-5,3.82-9.05,2.45s-6.61-4.72-5.68-7.45,5-3.82,9-2.44S223.41,151.54,222.49,154.27Z" style="fill: rgb(38, 50, 56); transform-origin: 215.121px 151.772px;" id="elj74d5mdkpa" class="animable"></path><path d="M199,153.52c-2.08,7.44-3.12,10.54-.74,15.66,3.58,7.71,13.16,8.92,17.42,2.31,3.83-5.94,6.59-17.11.47-22.7A10.33,10.33,0,0,0,199,153.52Z" style="fill: rgb(181, 91, 82); transform-origin: 208.317px 160.837px;" id="eliu98uo5s6tr" class="animable"></path><path d="M210.62,144.83c-3,1.72-9.37-9.05-17.28,0-5.66,6.49-2.05,16-2.05,16s-4.51-7.93-8.11-4.06c-4.7,5,.16,22.89,15.66,21.66s14-13.81,14-13.81,7.26-7.38,6.9-14C219.47,145.66,215.62,142,210.62,144.83Z" style="fill: rgb(38, 50, 56); transform-origin: 200.608px 159.827px;" id="elp1knt08pc6" class="animable"></path><path d="M212.5,159.91a7,7,0,0,0,.14,4.21c.64,1.91,2.11,1.92,2.89.6s1.21-3.61.1-5.15S213,158.38,212.5,159.91Z" style="fill: rgb(181, 91, 82); transform-origin: 214.272px 162.108px;" id="elbwk0b5flo4h" class="animable"></path><path d="M201,232s-3.34,11.58-7.63,26.86c-2.85,10.18-6.13,22-9.12,33.13-1.71,6.37-3.32,12.51-4.71,18-7.86,31.05-47.06,57.74-47.06,57.74l-7.59-8.35s26.34-22.18,34-51.15c15.47-58.81,6.77-68.73,19.1-80.68Z" style="fill: rgb(38, 50, 56); transform-origin: 162.945px 297.64px;" id="elv3k5c6yz5w" class="animable"></path><g id="elpmddwnaxn3b"><path d="M197.62,242.38c-1.16,4.49-2.62,10.16-4.23,16.5-2.85,10.18-6.13,22-9.12,33.13-1.28-14.2-2-40.31,8.45-48.43C194.78,242,196.41,241.67,197.62,242.38Z" style="opacity: 0.2; transform-origin: 190.588px 267.017px;" class="animable" id="elndcev9k1x3"></path></g><polygon points="133.13 368.93 123.65 358.5 126.52 355.62 138.15 366.58 133.13 368.93" style="fill: #F58232; transform-origin: 130.9px 362.275px;" id="elnidh4n3nckb" class="animable"></polygon><g id="ela1jkjnsxmkt"><polygon points="133.13 368.93 123.65 358.5 126.52 355.62 138.15 366.58 133.13 368.93" style="fill: rgb(255, 255, 255); opacity: 0.7; transform-origin: 130.9px 362.275px;" class="animable" id="elhvtr3a7r7n"></polygon></g><path d="M124.43,376.85a.92.92,0,0,1-.28-.05c-.93-.34-1.52-2.12-1.79-3.15a.18.18,0,0,1,.07-.19.17.17,0,0,1,.2,0c.28.16,2.74,1.6,2.79,2.61a.61.61,0,0,1-.28.56A1.11,1.11,0,0,1,124.43,376.85ZM122.84,374c.41,1.35.93,2.26,1.44,2.44a.68.68,0,0,0,.64-.13c.13-.09.14-.18.13-.24C125,375.55,123.81,374.61,122.84,374Z" style="fill: #F58232; transform-origin: 123.888px 375.139px;" id="elgmz725njpm8" class="animable"></path><path d="M208.82,233.62s2,61.82-2.42,85.11C201.86,343,188,398,188,398l-11.26-1.45s7.12-55.66,10.15-79.72c3.29-26.24-1-87.69-1-87.69Z" style="fill: rgb(38, 50, 56); transform-origin: 193.006px 313.57px;" id="ely7i7h8mwzr" class="animable"></path><polygon points="190.42 398.69 174.37 396.62 174.56 392.8 192.03 393.56 190.42 398.69" style="fill: #F58232; transform-origin: 183.2px 395.745px;" id="elzbv8f8xpd7" class="animable"></polygon><g id="el321cgul8wzc"><polygon points="190.42 398.69 174.37 396.62 174.56 392.8 192.03 393.56 190.42 398.69" style="fill: rgb(255, 255, 255); opacity: 0.7; transform-origin: 183.2px 395.745px;" class="animable" id="elxpp8jkytj1"></polygon></g><path d="M124.81,374.43a5.46,5.46,0,0,1-2.37-.67.19.19,0,0,1-.09-.16.23.23,0,0,1,.1-.16c.09,0,2-1.05,3.1-.64a1,1,0,0,1,.6.6.66.66,0,0,1-.17.8A1.9,1.9,0,0,1,124.81,374.43Zm-1.87-.81c.87.4,2.39.62,2.81.29.07-.06.14-.15,0-.38a.6.6,0,0,0-.38-.38A4.15,4.15,0,0,0,122.94,373.62Z" style="fill: #F58232; transform-origin: 124.284px 373.575px;" id="el2pdtchhpkkd" class="animable"></path><path d="M188.58,408.72a13.33,13.33,0,0,1-2.45-.28.17.17,0,0,1-.15-.15.18.18,0,0,1,.1-.19c.36-.19,3.52-1.78,4.46-1.25a.58.58,0,0,1,.3.5,1,1,0,0,1-.36.89A3,3,0,0,1,188.58,408.72Zm-1.83-.54c1.72.29,3,.21,3.49-.21a.69.69,0,0,0,.23-.6.21.21,0,0,0-.11-.2C189.85,406.89,188.05,407.56,186.75,408.18Z" style="fill: #F58232; transform-origin: 188.412px 407.737px;" id="elif0gnc20hq" class="animable"></path><path d="M186.17,408.45a.21.21,0,0,1-.11,0,.19.19,0,0,1-.08-.17c0-.14.39-3.52,2.28-3.32.5.05.65.3.68.51.14.88-1.75,2.58-2.7,3Zm1.94-3.17c-1.12,0-1.57,1.85-1.71,2.65,1-.58,2.26-1.91,2.18-2.44,0,0,0-.17-.36-.2Z" style="fill: #F58232; transform-origin: 187.463px 406.711px;" id="el2tkrdr783pd" class="animable"></path><path d="M177.8,225.64l-1.87,2.51c-.14.2.08.47.44.54l32.85,6.36c.28,0,.54,0,.58-.21l.75-2.74c0-.18-.17-.4-.48-.46l-31.72-6.14A.58.58,0,0,0,177.8,225.64Z" style="fill: #F58232; transform-origin: 193.219px 230.265px;" id="elkgzrw23b3wa" class="animable"></path><path d="M181.48,230l-.85-.17c-.17,0-.28-.14-.25-.24l1-3.55c0-.1.2-.16.36-.13l.85.17c.17,0,.29.14.26.24l-1,3.55C181.81,230,181.65,230,181.48,230Z" style="fill: rgb(38, 50, 56); transform-origin: 181.615px 227.951px;" id="elman09ew2ums" class="animable"></path><path d="M202.93,234.19l-.85-.16c-.17,0-.28-.15-.25-.25l1-3.54c0-.11.19-.17.36-.13l.85.16c.16,0,.28.15.25.25l-1,3.54C203.26,234.17,203.1,234.23,202.93,234.19Z" style="fill: rgb(38, 50, 56); transform-origin: 203.06px 232.15px;" id="elwmgeptnv9n" class="animable"></path></g><defs>     <filter id="active" height="200%">         <feMorphology in="SourceAlpha" result="DILATED" operator="dilate" radius="2"></feMorphology>                <feFlood flood-color="#32DFEC" flood-opacity="1" result="PINK"></feFlood>        <feComposite in="PINK" in2="DILATED" operator="in" result="OUTLINE"></feComposite>        <feMerge>            <feMergeNode in="OUTLINE"></feMergeNode>            <feMergeNode in="SourceGraphic"></feMergeNode>        </feMerge>    </filter>    <filter id="hover" height="200%">        <feMorphology in="SourceAlpha" result="DILATED" operator="dilate" radius="2"></feMorphology>                <feFlood flood-color="#ff0000" flood-opacity="0.5" result="PINK"></feFlood>        <feComposite in="PINK" in2="DILATED" operator="in" result="OUTLINE"></feComposite>        <feMerge>            <feMergeNode in="OUTLINE"></feMergeNode>            <feMergeNode in="SourceGraphic"></feMergeNode>        </feMerge>            <feColorMatrix type="matrix" values="0   0   0   0   0                0   1   0   0   0                0   0   0   0   0                0   0   0   1   0 "></feColorMatrix>    </filter></defs></svg>