<svg xmlns="http://www.w3.org/2000/svg" viewBox="0 0 500 500"><g id="freepik--Shadow--inject-67"><path d="M451.32,446.59c0,14.19-90.14,25.7-201.32,25.7S48.68,460.78,48.68,446.59s90.14-25.7,201.32-25.7S451.32,432.4,451.32,446.59Z" style="fill:#ebebeb"></path></g><g id="freepik--Device--inject-67"><rect x="62.84" y="114.78" width="374.31" height="250.43" rx="12.89" transform="translate(490 -10) rotate(90)" style="fill:#263238"></rect><rect x="135.64" y="79.04" width="229.01" height="322.14" style="fill:#fff"></rect><rect x="248.05" y="40.8" width="3.89" height="54.5" rx="1.25" transform="translate(318.04 -181.95) rotate(90)" style="fill:#37474f"></rect><circle cx="250" cy="413.84" r="7.05" style="fill:#37474f"></circle><rect x="170.93" y="123.28" width="158.44" height="2.23" style="fill:#ebebeb"></rect><rect x="170.93" y="130.2" width="158.44" height="2.23" style="fill:#ebebeb"></rect><rect x="170.93" y="340.93" width="158.44" height="2.23" style="fill:#ebebeb"></rect><rect x="170.93" y="347.85" width="158.44" height="2.23" style="fill:#ebebeb"></rect><circle cx="209.45" cy="364.54" r="7.32" style="fill:#00C60A"></circle><polygon points="209.57 368.81 205.21 364.4 206.68 362.95 209.22 365.53 214.52 357.23 216.25 358.34 209.57 368.81" style="fill:#fff"></polygon><path d="M227.78,364.48a4.6,4.6,0,0,1,.28-1.54,4.11,4.11,0,0,1,.83-1.36,4,4,0,0,1,3.09-1.35,3.85,3.85,0,0,1,2,.52,3.27,3.27,0,0,1,1.27,1.34L234,363a2.1,2.1,0,0,0-.41-.61,2.31,2.31,0,0,0-.51-.39,2.52,2.52,0,0,0-.58-.21,3,3,0,0,0-.59-.06,2.21,2.21,0,0,0-1.08.25,2.32,2.32,0,0,0-.77.65,2.89,2.89,0,0,0-.46.91,3.33,3.33,0,0,0,0,2.1,2.84,2.84,0,0,0,.51.92,2.71,2.71,0,0,0,.79.64,2.19,2.19,0,0,0,1,.24,2.61,2.61,0,0,0,.6-.08,2.1,2.1,0,0,0,.59-.22,2.49,2.49,0,0,0,.52-.4,2.07,2.07,0,0,0,.39-.6l1.35.78a2.57,2.57,0,0,1-.58.85,3.47,3.47,0,0,1-.85.61,4.37,4.37,0,0,1-2.07.52,3.73,3.73,0,0,1-1.67-.38,4.3,4.3,0,0,1-1.3-1,4.65,4.65,0,0,1-.85-1.4A4.26,4.26,0,0,1,227.78,364.48Z" style="fill:#00C60A"></path><path d="M240.08,368.86a3.82,3.82,0,0,1-1.7-.37,4.29,4.29,0,0,1-2.15-2.36,4.36,4.36,0,0,1-.3-1.59,4.3,4.3,0,0,1,.32-1.63,4.49,4.49,0,0,1,.87-1.38,4.4,4.4,0,0,1,1.33-1,4,4,0,0,1,1.67-.35,3.61,3.61,0,0,1,1.68.38,4.16,4.16,0,0,1,1.31,1A4.57,4.57,0,0,1,244,363a4.38,4.38,0,0,1,.3,1.58,4.3,4.3,0,0,1-.32,1.63,4.24,4.24,0,0,1-.86,1.37,4.18,4.18,0,0,1-1.32.94A3.88,3.88,0,0,1,240.08,368.86Zm-2.47-4.32a3.52,3.52,0,0,0,.17,1.07,2.94,2.94,0,0,0,.48.91,2.67,2.67,0,0,0,.78.64,2.25,2.25,0,0,0,1.05.23,2.31,2.31,0,0,0,1.07-.24,2.56,2.56,0,0,0,.78-.65,3.11,3.11,0,0,0,.48-.92,3.7,3.7,0,0,0,.16-1,3.21,3.21,0,0,0-.18-1.07,2.85,2.85,0,0,0-.49-.91,2.17,2.17,0,0,0-.78-.63,2.21,2.21,0,0,0-1-.23,2.27,2.27,0,0,0-1.06.24,2.16,2.16,0,0,0-.78.65,2.94,2.94,0,0,0-.48.91A3.37,3.37,0,0,0,237.61,364.54Z" style="fill:#00C60A"></path><path d="M247.17,363.34v5.46h-1.65v-8.52h1.28l4.44,5.59v-5.58h1.66v8.51h-1.35Z" style="fill:#00C60A"></path><path d="M254.67,368.8v-8.52h5.73v1.45h-4.07v2.2h3.38v1.34h-3.38v3.53Z" style="fill:#00C60A"></path><path d="M261.56,368.8v-8.52h1.66v8.52Z" style="fill:#00C60A"></path><path d="M265,368.8v-8.52h3.77a2.49,2.49,0,0,1,1.09.24,3.1,3.1,0,0,1,.86.65,3.29,3.29,0,0,1,.56.91,2.69,2.69,0,0,1,.2,1,2.81,2.81,0,0,1-.41,1.51,2.39,2.39,0,0,1-1.12,1l1.94,3.21H270l-1.74-2.86h-1.63v2.86Zm1.66-4.31h2.08a.78.78,0,0,0,.42-.11,1.05,1.05,0,0,0,.34-.29,1.32,1.32,0,0,0,.23-.44,1.61,1.61,0,0,0,.09-.54,1.63,1.63,0,0,0-.1-.55,1.39,1.39,0,0,0-.26-.44,1.28,1.28,0,0,0-.37-.29.94.94,0,0,0-.43-.1h-2Z" style="fill:#00C60A"></path><path d="M279.92,368.8v-5.64l-2.19,4.2h-.9l-2.2-4.2v5.64H273v-8.52h1.78l2.52,4.85,2.54-4.85h1.77v8.52Z" style="fill:#00C60A"></path><path d="M289.27,367.35v1.45h-5.92v-8.52h5.81v1.45H285v2h3.59v1.35H285v2.22Z" style="fill:#00C60A"></path><path d="M290.57,368.8v-8.52h3.09a4.49,4.49,0,0,1,1.83.34,3.67,3.67,0,0,1,1.32.91,3.79,3.79,0,0,1,.79,1.35,5.43,5.43,0,0,1,0,3.41,3.72,3.72,0,0,1-2.17,2.2,4.61,4.61,0,0,1-1.74.31Zm5.62-4.27a3.39,3.39,0,0,0-.17-1.13,2.41,2.41,0,0,0-.49-.89,2.19,2.19,0,0,0-.79-.58,2.85,2.85,0,0,0-1.08-.2h-1.44v5.62h1.44a2.68,2.68,0,0,0,1.09-.22,2.22,2.22,0,0,0,.79-.59,2.59,2.59,0,0,0,.48-.9A3.31,3.31,0,0,0,296.19,364.53Z" style="fill:#00C60A"></path></g><g id="freepik--Envelope--inject-67"><polygon points="312.64 325.4 187.36 325.4 187.36 219.42 249.99 179.64 312.64 219.42 312.64 325.4" style="fill:#00C60A"></polygon><polygon points="312.64 325.4 187.36 325.4 187.36 219.42 249.99 179.64 312.64 219.42 312.64 325.4" style="opacity:0.2"></polygon><rect x="194.42" y="174.6" width="111.15" height="142.69" style="fill:#ebebeb"></rect><polygon points="243.23 259.97 217.78 234.21 226.33 225.76 241.2 240.81 272.08 192.39 282.22 198.85 243.23 259.97" style="fill:#00C60A"></polygon><path d="M312.64,246V325.4H187.36V246c5.38,3,10.67,6.24,16,9.36s10.61,6.36,15.88,9.6c5.87,3.57,11.74,7.21,17.59,10.87l.19-.11c-.06,0-.1.1-.15.13Q243.43,279.9,250,284c4.36-2.75,8.75-5.52,13.13-8.23-.05,0-.09-.09-.15-.13a.87.87,0,0,0,.19.1q8.77-5.47,17.59-10.88,7.91-4.83,15.86-9.58C302,252.19,307.26,249,312.64,246Z" style="fill:#00C60A"></path><g style="opacity:0.2"><path d="M312.64,246c-5.06,3.55-10.21,7-15.31,10.46s-10.29,6.84-15.47,10.23q-8.1,5.31-16.23,10.52l-.49.34-14.43,9.2-.72.43-.7-.43-14.41-9.22-.51-.32q-8.15-5.22-16.25-10.54c-5.16-3.37-10.31-6.79-15.45-10.21S192.42,249.5,187.36,246c5.38,3,10.67,6.24,16,9.36s10.61,6.36,15.88,9.6c5.87,3.57,11.74,7.21,17.59,10.87l0,0Q243.43,279.9,250,284c4.36-2.75,8.75-5.52,13.13-8.23,0,0,0,0,0,0q8.77-5.47,17.59-10.88,7.91-4.83,15.86-9.58C302,252.19,307.26,249,312.64,246Z"></path><path d="M237,275.67c-.06,0-.1.1-.15.13l-2,1.68c-3.14,2.65-6.36,5.19-9.63,7.66-4,3-8.07,6-12.17,8.86s-8.26,5.66-12.5,8.37-8.5,5.36-12.92,7.79c3.8-3.33,7.75-6.44,11.74-9.46s8.09-6,12.17-8.87,8.28-5.68,12.51-8.39c3.37-2.16,6.8-4.29,10.29-6.28.81-.47,1.62-.92,2.45-1.38Z"></path><path d="M312.34,310.16c-4.42-2.43-8.71-5.08-12.92-7.79S291,296.84,286.9,294s-8.18-5.82-12.17-8.86c-3.25-2.47-6.47-5-9.59-7.64l-2-1.7c-.05,0-.09-.09-.15-.13a.87.87,0,0,0,.19.1c.83.47,1.64.92,2.45,1.39,3.49,2,6.9,4.12,10.29,6.28,4.23,2.71,8.37,5.53,12.49,8.39s8.18,5.82,12.17,8.87S308.54,306.83,312.34,310.16Z"></path></g><path d="M196.4,167.8a68.73,68.73,0,0,1,0-16.55,68.72,68.72,0,0,1,0,16.55Z" style="fill:#263238"></path><path d="M189.36,170.43a61.32,61.32,0,0,1-6.21-5.5,60.14,60.14,0,0,1-5.5-6.2,69,69,0,0,1,11.71,11.7Z" style="fill:#263238"></path><path d="M186.25,177.26a60.54,60.54,0,0,1-8.28.5,58.93,58.93,0,0,1-8.27-.49,58.85,58.85,0,0,1,8.27-.5A60.53,60.53,0,0,1,186.25,177.26Z" style="fill:#263238"></path><path d="M188.88,184.29A69.51,69.51,0,0,1,177.18,196a68.53,68.53,0,0,1,11.7-11.72Z" style="fill:#263238"></path><path d="M302.85,167.8a62.16,62.16,0,0,1-.49-8.28,60.31,60.31,0,0,1,.51-8.27,68.73,68.73,0,0,1,0,16.55Z" style="fill:#263238"></path><path d="M309.89,170.43a69,69,0,0,1,11.71-11.7,60.14,60.14,0,0,1-5.5,6.2A61.32,61.32,0,0,1,309.89,170.43Z" style="fill:#263238"></path><path d="M313,177.26a60.53,60.53,0,0,1,8.28-.49,58.76,58.76,0,0,1,8.27.5,58.84,58.84,0,0,1-8.27.49A60.54,60.54,0,0,1,313,177.26Z" style="fill:#263238"></path><path d="M310.37,184.29A68.53,68.53,0,0,1,322.07,196a61.44,61.44,0,0,1-6.2-5.51A60.25,60.25,0,0,1,310.37,184.29Z" style="fill:#263238"></path></g></svg>