<svg xmlns="http://www.w3.org/2000/svg" viewBox="0 0 500 500"><g id="freepik--Shadow--inject-13"><ellipse id="freepik--path--inject-13" cx="250" cy="416.24" rx="193.89" ry="11.32" style="fill:#f5f5f5"></ellipse></g><g id="freepik--character-1--inject-13"><path d="M136.83,140.87c-1.13,5-2.47,9.87-4,14.72-.77,2.42-1.61,4.81-2.48,7.21-.44,1.2-.9,2.39-1.37,3.58l-.73,1.82a10,10,0,0,1-2.12,3.39,8,8,0,0,1-4.57,2.34,9.14,9.14,0,0,1-4-.33,16.16,16.16,0,0,1-4.7-2.42,40.28,40.28,0,0,1-6.13-5.7,82.73,82.73,0,0,1-9.18-12.54,2.93,2.93,0,0,1,4.55-3.63l.1.09c1.71,1.66,3.45,3.43,5.24,5s3.55,3.27,5.35,4.76a35.93,35.93,0,0,0,5.37,3.81,6.21,6.21,0,0,0,2,.81c.17,0,.1-.1-.3-.07a2.42,2.42,0,0,0-1.34.62c-.29.28-.28.34-.26.19l.5-1.71,1-3.5c.67-2.34,1.29-4.71,1.93-7.06l3.72-14.13,0-.09a5.9,5.9,0,0,1,11.46,2.79Z" style="fill:#ffc3bd"></path><path d="M128.08,126.75c-5.6,5-6.8,19.42-6.8,19.42L138,156.51s1.54-8,2.61-17.71C141.82,128.27,134.86,120.67,128.08,126.75Z" style="fill:#F58232"></path><path d="M166.2,118.44c-11.53-.06-23,1.26-34.45,5.69a12,12,0,0,0-7.43,12.72c1.38,10.76,5.21,30.87,15.84,58.54l40.15-11C179,178.16,167.49,148.85,166.2,118.44Z" style="fill:#F58232"></path><path d="M102.83,150.25l-2.65-6.35-7.05,5.35s1.25,5.33,6.49,4.26Z" style="fill:#ffc3bd"></path><path d="M94.19,141.35l-2.46,3.25a1.52,1.52,0,0,0-.25,1.64l1.65,3,7.05-5.35-3.48-3.14A1.83,1.83,0,0,0,94.19,141.35Z" style="fill:#ffc3bd"></path><path d="M161.71,133c.18,2.92,5.12,15.07,9,17.29-.93-4.08-1.79-8.37-2.51-12.81Z" style="opacity:0.2"></path><path d="M145.53,100.73c.29,5.74,1.74,16.06,6.57,18.91-2.28,3.62-5.38,7.9-11.95,9.54s-6.55-3.11-5.4-5.85c5.86-2.79,4.55-7.32,2.39-11.37Z" style="fill:#ffc3bd"></path><path d="M142.11,105.31l-5,6.65a17.88,17.88,0,0,1,1.3,2.92c2.29-.84,4.91-4.11,4.55-6.62A8.65,8.65,0,0,0,142.11,105.31Z" style="opacity:0.2"></path><path d="M130.77,88.6c4.55,1.6,3.69,5.31,1.88,7,2.83,1,4.82,4.79,4.82,4.79l-4.8,3.85s-6.69-.21-7.86-4-7.68-8.3-.63-12.71S130.77,88.6,130.77,88.6Z" style="fill:#263238"></path><path d="M145,92.05c1.2,7.62,2.29,12-.66,16.69-4.45,7-14.52,5.55-18-1.57-3.12-6.42-4.56-17.8,2.16-22.36A10.64,10.64,0,0,1,145,92.05Z" style="fill:#ffc3bd"></path><path d="M139.59,86.09c-.71,2.45-7.72,0-12.7,2.46-2.27,1.12-5.71,6-12,2.7,0,0,4.28-1.76,4.79-5.2.6-4,1.84-9.16,8.88-7.89s8.21-1.73,12.77-.7C147.08,78.75,149.22,89.85,139.59,86.09Z" style="fill:#263238"></path><path d="M138.17,85.63C136,90,139.25,92,141.75,92c-1.29,2.72-.08,6.8-.08,6.8l6.12-.63s4.63-4.83,2.79-8.37-.33-11.3-8.45-9.51S138.17,85.63,138.17,85.63Z" style="fill:#263238"></path><path d="M140.08,82.17C144.33,80,146,77,146.19,73.89,148.44,77.94,147.27,82.22,140.08,82.17Z" style="fill:#263238"></path><path d="M149.31,98.88a7.23,7.23,0,0,1-3.4,4.09c-2.06,1-3.36-1-3-3.35.31-2.17,1.76-5.32,3.93-5.36S150.07,96.65,149.31,98.88Z" style="fill:#ffc3bd"></path><polygon points="133.85 358.23 143.59 356.99 144.5 339.08 133.94 340.12 133.85 358.23" style="fill:#ffc3bd"></polygon><path d="M150.94,265.74c10.77-27.57,20.54-78.93,20.54-78.93l-31.29,8.57s-7.7,47.92-8.5,71.61c-.84,24.64-.15,77.92-.15,77.92h14.9S153.78,285,150.94,265.74Z" style="fill:#263238"></path><path d="M164,211.92c-7.86,8.11-9.07,24.34-7.87,38.73,3.85-12.58,7.36-26.8,10.05-38.62Z" style="opacity:0.2"></path><polygon points="131.15 346.71 146.79 347.36 147.81 342.31 130.37 341.32 131.15 346.71" style="fill:#F58232"></polygon><path d="M135.24,95.78c.14.62-.08,1.18-.48,1.27s-.84-.35-1-1,.08-1.18.48-1.26S135.11,95.17,135.24,95.78Z" style="fill:#263238"></path><path d="M127.62,97.23c.14.62-.08,1.18-.48,1.27s-.84-.35-1-1,.08-1.18.48-1.26S127.49,96.62,127.62,97.23Z" style="fill:#263238"></path><path d="M128.91,97.48a22.12,22.12,0,0,1-1.77,5.86,3.61,3.61,0,0,0,3-.08Z" style="fill:#ed847e"></path><path d="M132.13,105.28a5.16,5.16,0,0,0,3.64-1.86.19.19,0,1,0-.3-.22,4.92,4.92,0,0,1-4.14,1.72.19.19,0,0,0-.19.18.18.18,0,0,0,.18.19A5.42,5.42,0,0,0,132.13,105.28Z" style="fill:#263238"></path><path d="M135.34,92.35a.36.36,0,0,0,.15-.1.38.38,0,0,0,0-.52,3.7,3.7,0,0,0-3.27-.86.37.37,0,0,0-.25.45.38.38,0,0,0,.46.26h0a2.91,2.91,0,0,1,2.58.71A.35.35,0,0,0,135.34,92.35Z" style="fill:#263238"></path><path d="M123.33,95.51a.34.34,0,0,0,.25-.24,2.89,2.89,0,0,1,1.8-2,.36.36,0,0,0,.25-.46.37.37,0,0,0-.45-.25,3.61,3.61,0,0,0-2.3,2.44.36.36,0,0,0,.45.46Z" style="fill:#263238"></path><polygon points="211.73 329.92 219.22 323.57 210.24 308.05 201.95 314.68 211.73 329.92" style="fill:#ffc3bd"></polygon><path d="M189,262.11c-8.83-34.13,5.43-60.55-8.72-77.71l-26.53,7.26s9.78,52.81,18.07,75.24C180.46,290.21,202,320,202,320l12.75-7.76S202.67,283.45,189,262.11Z" style="fill:#263238"></path><path d="M217.52,322.1a2.87,2.87,0,0,1,3.12.87l5.8,6.57a1.39,1.39,0,0,1-.25,2c-3.51,2.54-2.88,1.72-6.31,4.12-4,2.81-4.25,4.21-9.63,6.55-3.19,1.39-4.93-.25-4.34-1.65,2.75-6.5,3-10.09,4.4-11.75,0,0-4.37-1.42-3.78-4s5.34-5.64,7.22-4.6a3.64,3.64,0,0,1,2.2,3.34A2.9,2.9,0,0,1,217.52,322.1Z" style="fill:#263238"></path><path d="M142.12,354.52a2.87,2.87,0,0,1,2.69,1.81l3.42,8.08a1.4,1.4,0,0,1-.89,1.83c-4.13,1.29-1.73.39-5.75,1.58-4.7,1.39-12,4.93-17.5,6.56-3.33,1-4.81-2.06-3.59-2.95,7.79-5.68,10.83-11.68,12.66-12.82,0,0-3.7-2.73-2.32-5s3.48-3.08,4.93-1.5a3.65,3.65,0,0,1,1,3.86A35.9,35.9,0,0,1,142.12,354.52Z" style="fill:#263238"></path><polygon points="202.73 322.4 216.13 314.31 214.2 309.54 199.11 318.33 202.73 322.4" style="fill:#F58232"></polygon><path d="M168.76,121.58c2.49,1.71,4.73,3.43,7,5.22s4.5,3.66,6.7,5.57a102.93,102.93,0,0,1,12.39,12.78c.48.58,1,1.2,1.4,1.85s.93,1.27,1.35,1.93l1.22,2,1.11,2a83,83,0,0,1,3.7,8.07,110.27,110.27,0,0,1,5.18,16.59,2.94,2.94,0,0,1-5.47,2l0-.08c-2.56-4.88-5.18-9.83-7.9-14.54-1.38-2.35-2.77-4.66-4.23-6.83a51.54,51.54,0,0,0-4.69-6,114.84,114.84,0,0,0-11.67-10.88c-2.09-1.75-4.23-3.44-6.38-5.13s-4.38-3.36-6.47-4.92l-.08-.05a5.9,5.9,0,0,1,6.85-9.61Z" style="fill:#ffc3bd"></path><path d="M166.2,118.44c7.52.13,15.69,11.9,15.69,11.9l-7.3,13.56a31.11,31.11,0,0,1-14.65-10.37C153.61,125,157.09,118.29,166.2,118.44Z" style="fill:#F58232"></path><path d="M202.45,177l2.09,7.59,8-5s-2.73-6.64-6.49-5.76Z" style="fill:#ffc3bd"></path><path d="M211.62,188.66l2.52-2.21a2.74,2.74,0,0,0,.52-3.5l-2.09-3.34-8,5,3.19,3.8A2.73,2.73,0,0,0,211.62,188.66Z" style="fill:#ffc3bd"></path></g><g id="freepik--character-2--inject-13"><path d="M372.3,161.67c2.87-8.92,23.69,6.25,25.11,11.91s-15.92,10-4.63,18.17-9.92,5.28-5.68,10.81,6.4,16.69-14,8.94-35.5-16-22.5-20.17-8.33-11,4.92-16.36S352.71,163.5,372.3,161.67Z" style="fill:#F58232"></path><path d="M388.37,222.39c1.14,3.93,2.47,8.05,3.87,12,.72,2,1.47,3.88,2.27,5.74.43.91.84,1.84,1.29,2.7.21.45.44.87.67,1.27l.35.62.09.16,0,.08h0s0,0,0,0a2,2,0,0,0-.84-.42.91.91,0,0,0-.68,0,3,3,0,0,0,1.38-.65,27.64,27.64,0,0,0,4.23-3.8c2.8-3,5.54-6.38,8.13-9.74l.06-.07a2.49,2.49,0,0,1,4.25,2.52,69.43,69.43,0,0,1-6.63,12,31.26,31.26,0,0,1-4.89,5.64,11.9,11.9,0,0,1-4.33,2.5,7.23,7.23,0,0,1-3.93.09,7.37,7.37,0,0,1-3.53-2.21c-.22-.23-.37-.44-.55-.66l-.18-.26-.14-.19-.53-.77c-.36-.52-.69-1-1-1.55-.67-1-1.22-2.07-1.79-3.12-1.08-2.09-2.06-4.19-2.93-6.32a96.46,96.46,0,0,1-4.33-13,5,5,0,0,1,9.64-2.64Z" style="fill:#ff8b7b"></path><path d="M411.79,234.88l4.43-2.62-4.47-6.58s-3.58,3.78-3.61,7.57Z" style="fill:#ff8b7b"></path><path d="M417.93,224.86l-.2-.2a3.06,3.06,0,0,0-4.21-.45l-1.77,1.47,4.47,6.58,1.9-1.79A4.07,4.07,0,0,0,417.93,224.86Z" style="fill:#ff8b7b"></path><path d="M374,216.19c.12,2.62,1.64,7.75,2.91,11.59.92,2.78,1.69,4.87,1.69,4.87l1.53-.45,12.68-3.77c-.14-6.75-.79-14.15-7.58-18.35C380.93,207.44,373.76,211.51,374,216.19Z" style="fill:#263238"></path><path d="M376.88,227.78c.92,2.78,1.69,4.87,1.69,4.87l1.53-.45c.11-2.64.08-6.83-1.1-8.88A11.53,11.53,0,0,0,376.88,227.78Z" style="opacity:0.30000000000000004"></path><polygon points="316.87 408.22 324.8 408.98 329.09 390.48 321.16 389.72 316.87 408.22" style="fill:#ff8b7b"></polygon><polygon points="260.55 386.33 267.16 390.99 279.56 377.02 272.95 372.37 260.55 386.33" style="fill:#ff8b7b"></polygon><path d="M268.41,390.27l-4.89-7.66a.62.62,0,0,0-.8-.24l-6.46,3.1a1.34,1.34,0,0,0-.48,1.89c1.75,2.65,2.73,3.83,4.87,7.2,1.33,2.08,4,6.86,5.78,9.73s4.68,1.16,4.17-.2c-2.29-6.11-2.19-9.61-1.87-12.4A2.18,2.18,0,0,0,268.41,390.27Z" style="fill:#263238"></path><path d="M325.89,406.58h-9.55a.78.78,0,0,0-.74.58l-1.86,7.55a1.22,1.22,0,0,0,1.21,1.51c3.36,0,5-.23,9.16-.23,2.58,0,9.26.25,12.83.25s4.12-3.53,2.67-3.85c-6.52-1.43-10.3-3.41-12.35-5.29A2,2,0,0,0,325.89,406.58Z" style="fill:#263238"></path><polygon points="329.08 390.48 326.69 400.82 318.77 400.02 321.15 389.72 329.08 390.48" style="opacity:0.2"></polygon><polygon points="272.94 372.37 279.56 377.02 273.16 384.22 266.55 379.56 272.94 372.37" style="opacity:0.2"></polygon><path d="M334.12,239.76l29.49,14.15c26.16-39.77,23.4-42.46,23.4-42.46s-4.56-3.53-9.38-6.62c-.73-.46-1.47-.92-2.2-1.36A104.77,104.77,0,0,0,362.05,197c-.68-.29-1.36-.56-2-.83a99,99,0,0,0-11.24-3.52c-1.15,5.86-2.19,10.8-3.19,15.08-1.3,5.58-2.53,10-3.76,13.84A123.6,123.6,0,0,1,334.12,239.76Z" style="fill:#263238"></path><path d="M341.83,221.61c3.43-3.84,7.39-13.28,7.09-17.07l-3.33,3.23C344.29,213.35,343.06,217.8,341.83,221.61Z" style="opacity:0.30000000000000004"></path><path d="M368.26,188.74c-1.45,3.76-3.52,7.38-6.22,8.3,0,0-3.21,7.88,7.09,16.71,10.85-5.56,6.3-10.28,6.3-10.28-4.29-3.47-2.94-6.74.76-11.5L373,188.65A2.57,2.57,0,0,0,368.26,188.74Z" style="fill:#ff8b7b"></path><path d="M373,188.65a2.57,2.57,0,0,0-4.61-.24,16.9,16.9,0,0,0,4.55,9.06,17.4,17.4,0,0,1,3.22-5.5Z" style="opacity:0.2"></path><path d="M366,174.72c-.35,8.06-.67,11.46,2.86,16.07,5.31,6.93,15.09,5.81,17.8-1.93,2.44-7,2.62-19-4.73-23.13A10.6,10.6,0,0,0,366,174.72Z" style="fill:#ff8b7b"></path><path d="M389.34,176.67a.12.12,0,0,0,.05,0,.4.4,0,0,0-.11-.54,3.69,3.69,0,0,0-3.41-.53.39.39,0,0,0,.3.72,2.92,2.92,0,0,1,2.7.45A.36.36,0,0,0,389.34,176.67Z" style="fill:#263238"></path><path d="M370.3,167.23c6.21,8.94-2.07,6-.54,11,1,3.37-6.67,10.49-8.75,4.49S360.18,166,370.3,167.23Z" style="fill:#F58232"></path><path d="M367.78,167.17c1.12,8.39,8.83-.45,11.41,4s15.34,1.86,11.64-3.3S372.6,158.18,367.78,167.17Z" style="fill:#F58232"></path><path d="M363.08,181.49a6.55,6.55,0,0,0,2.42,4.27c1.76,1.38,3.44,0,3.61-2.12.15-1.91-.58-4.92-2.67-5.47S362.82,179.42,363.08,181.49Z" style="fill:#ff8b7b"></path><path d="M363.61,253.91s-8.3,40.13-14.47,71c-4.91,24.54-19.48,71.37-19.48,71.37L318,395.12s3.72-55.45,14.36-71.62c-.19-36-4.93-71.1,7.66-81.13Z" style="fill:#F58232"></path><polygon points="316.34 391.56 331.67 393.45 330.35 398.63 315.99 397.08 316.34 391.56" style="fill:#263238"></polygon><path d="M342.94,273.47l-11-10.56c-1.31,12.47-.43,28.77.06,46.07C338.81,297.07,343.86,284.11,342.94,273.47Z" style="opacity:0.30000000000000004"></path><path d="M357.13,250.91s-22.45,39.28-34,68.45a65.05,65.05,0,0,1-5.11,10.31c-14,22.62-40.69,52.09-40.69,52.09l-8.53-7.13s26.52-49.84,37.13-61.14c7.24-34.47,12.78-65,28.16-73.73Z" style="fill:#F58232"></path><polygon points="277.06 384.45 266 375.89 268.64 370.98 280.78 380.96 277.06 384.45" style="fill:#263238"></polygon><path d="M334.46,237.79l-2.52,2c-.19.15-.05.48.3.65l30.92,14.85c.27.12.54.1.64-.06l1.45-2.55c.11-.17-.06-.44-.35-.58L335,237.8A.6.6,0,0,0,334.46,237.79Z" style="fill:#F58232"></path><path d="M334.46,237.79l-2.52,2c-.19.15-.05.48.3.65l30.92,14.85c.27.12.54.1.64-.06l1.45-2.55c.11-.17-.06-.44-.35-.58L335,237.8A.6.6,0,0,0,334.46,237.79Z" style="opacity:0.2"></path><path d="M337,243.1l-.8-.39c-.16-.07-.25-.21-.19-.31l1.92-3.29c.06-.1.24-.11.39,0l.8.39c.16.07.25.22.19.31l-1.92,3.29A.3.3,0,0,1,337,243.1Z" style="fill:#F58232"></path><path d="M360.78,254.54l-.8-.39c-.16-.07-.24-.22-.18-.31l1.92-3.29c.06-.1.23-.11.39,0l.8.39c.16.07.24.21.19.31l-1.93,3.29C361.12,254.6,360.94,254.61,360.78,254.54Z" style="fill:#F58232"></path><path d="M348.87,248.82l-.8-.39c-.15-.07-.24-.21-.18-.31l1.92-3.29c.06-.1.23-.11.39,0l.8.39c.16.07.25.21.19.31l-1.92,3.29C349.21,248.88,349,248.89,348.87,248.82Z" style="fill:#F58232"></path><path d="M377.32,178.48c-.07.65.21,1.22.63,1.28s.81-.43.88-1.08-.22-1.23-.63-1.28S377.39,177.83,377.32,178.48Z" style="fill:#263238"></path><path d="M384.54,179.41c-.07.65.21,1.22.63,1.28s.81-.43.88-1.09-.21-1.22-.63-1.27S384.61,178.76,384.54,179.41Z" style="fill:#263238"></path><path d="M385.23,178.34l1.58-.25S385.9,179.21,385.23,178.34Z" style="fill:#263238"></path><path d="M377.75,183.55a3.71,3.71,0,0,1-.93-.12,4.12,4.12,0,0,1-2.73-2.36,6.33,6.33,0,0,1,1.88-7.48,4,4,0,0,1,6.25,1.57,6,6,0,0,1,.33,4.06l-.23-.06.23.06a6,6,0,0,1-2.21,3.42A4.35,4.35,0,0,1,377.75,183.55Zm.81-10.4a3.91,3.91,0,0,0-2.31.81,5.86,5.86,0,0,0-1.74,6.91,3.54,3.54,0,0,0,5.55,1.4,5.86,5.86,0,0,0,1.74-6.91,3.7,3.7,0,0,0-2.42-2.11A3.29,3.29,0,0,0,378.56,173.15Z" style="fill:#fff"></path><path d="M386.5,184.85a2.82,2.82,0,0,1-.65-.08c-2-.51-3-3.3-2.31-6.23s3-4.91,5-4.41,3,3.3,2.3,6.24a6.93,6.93,0,0,1-2,3.46A3.55,3.55,0,0,1,386.5,184.85Zm1.37-10.33c-1.61,0-3.27,1.72-3.87,4.13-.68,2.68.2,5.22,2,5.66a2.81,2.81,0,0,0,2.57-.83,6.41,6.41,0,0,0,1.84-3.23c.67-2.68-.21-5.22-2-5.66A2,2,0,0,0,387.87,174.52Z" style="fill:#fff"></path><path d="M383.73,179a.21.21,0,0,1-.19-.1c-.27-.35-1-.12-1-.12a.23.23,0,1,1-.15-.44s1.07-.35,1.54.28a.24.24,0,0,1,0,.33A.3.3,0,0,1,383.73,179Z" style="fill:#fff"></path><path d="M383.05,180.27a18,18,0,0,0,1.84,4.44,2.71,2.71,0,0,1-2.33.15Z" style="fill:#ff5652"></path><path d="M379.94,187.15a.21.21,0,0,0,.14-.17.2.2,0,0,0-.17-.21,5.22,5.22,0,0,1-3.92-2.55.19.19,0,1,0-.33.17,5.47,5.47,0,0,0,4.21,2.76Z" style="fill:#263238"></path><path d="M376.87,175.9a.34.34,0,0,0,.16-.1,3,3,0,0,1,2.54-1,.37.37,0,0,0,.44-.3.4.4,0,0,0-.31-.46,3.65,3.65,0,0,0-3.22,1.19.39.39,0,0,0,.39.64Z" style="fill:#263238"></path><path d="M269.79,394.42l.12,0a1.06,1.06,0,0,0,1-.3.69.69,0,0,0,.24-.62c-.16-1-2.78-2.22-3.08-2.36a.19.19,0,0,0-.25.25C268.17,392.4,268.88,394.05,269.79,394.42Zm-1.45-2.69c1,.51,2.36,1.33,2.45,1.87a.29.29,0,0,1-.12.27.69.69,0,0,1-.66.21C269.48,393.94,268.87,393.08,268.34,391.73Z" style="fill:#F58232"></path><path d="M268.11,391.62c.9.36,2.85.55,3.46-.06a.7.7,0,0,0,.09-.84,1,1,0,0,0-.65-.54c-1.11-.32-3,1-3.11,1a.19.19,0,0,0-.08.17.18.18,0,0,0,.1.16Zm2.88-1.05a.61.61,0,0,1,.33.32c.11.22.05.33,0,.39-.39.4-2,.36-2.88.05a4.13,4.13,0,0,1,2.49-.78Z" style="fill:#F58232"></path><path d="M330.17,408.15a3.12,3.12,0,0,0,1.85-.44,1.17,1.17,0,0,0,.46-.92.56.56,0,0,0-.26-.52c-.88-.58-4.09.89-4.72,1.19a.19.19,0,0,0-.1.2.19.19,0,0,0,.15.16A12.39,12.39,0,0,0,330.17,408.15Zm1.47-1.64a.65.65,0,0,1,.38.08s.08.07.08.18a.77.77,0,0,1-.32.63c-.55.43-1.86.48-3.58.17A11.61,11.61,0,0,1,331.64,406.51Z" style="fill:#F58232"></path><path d="M327.59,407.83l.07,0c1.07-.44,3.19-2.18,3-3.08,0-.2-.17-.45-.66-.51-1.91-.22-2.61,3.23-2.64,3.37a.19.19,0,0,0,.06.19A.21.21,0,0,0,327.59,407.83Zm2.28-3.23H330q.3,0,.33.18c.08.52-1.38,1.9-2.46,2.5C328.1,406.45,328.73,404.6,329.87,404.6Z" style="fill:#F58232"></path><path d="M378,177.41l1.58-.25S378.68,178.28,378,177.41Z" style="fill:#263238"></path><path d="M348.64,206.34c-1.92,1.72-3.83,3.22-5.8,4.77s-4,3-6.08,4.4a75.33,75.33,0,0,1-6.53,4,33.49,33.49,0,0,1-7.79,3.25l-.24.06a3.78,3.78,0,0,1-1.8,0,24,24,0,0,1-5.81-2.32,44.39,44.39,0,0,1-4.76-3q-2.22-1.63-4.25-3.43c-1.35-1.23-2.63-2.43-3.89-3.82a2.5,2.5,0,0,1,3-3.89l.09,0c1.45.78,2.95,1.64,4.44,2.4s3,1.54,4.46,2.24,3,1.34,4.39,1.87a18.24,18.24,0,0,0,4,1.06l-2,.08a29.49,29.49,0,0,0,5.37-2.78c1.88-1.19,3.77-2.51,5.64-3.87s3.73-2.8,5.58-4.25,3.7-3,5.46-4.39l.05,0a5,5,0,0,1,6.48,7.61Z" style="fill:#ff8b7b"></path><path d="M306.11,208.64l-2.64-6L298.28,207s2.85,4.19,6.06,4.9Z" style="fill:#ff8b7b"></path><path d="M301.08,198.51l-1.92,1.78a4.45,4.45,0,0,0-1.35,4.05l.47,2.68,5.19-4.41Z" style="fill:#ff8b7b"></path><path d="M348.77,192.69c-3.95-.74-12.94,8.13-12.94,8.13l6.51,13.69s11.6-7,11.55-12C353.85,198,353.82,193.64,348.77,192.69Z" style="fill:#263238"></path></g><g id="freepik--gender-symbols--inject-13"><path d="M297.38,188.69a8.46,8.46,0,0,1-6-2.49,58.52,58.52,0,0,0-82.74,0,8.5,8.5,0,0,1-12-12,75.52,75.52,0,0,1,106.78,0,8.5,8.5,0,0,1-6,14.51Z" style="fill:#F58232"></path><path d="M297.38,188.69a8.46,8.46,0,0,1-6-2.49,58.52,58.52,0,0,0-82.74,0,8.5,8.5,0,0,1-12-12,75.52,75.52,0,0,1,106.78,0,8.5,8.5,0,0,1-6,14.51Z" style="fill:#fff;opacity:0.4"></path><path d="M303.39,281a8.5,8.5,0,0,0-12-12,58.51,58.51,0,0,1-82.74-82.74,8.5,8.5,0,0,0-12-12,75.49,75.49,0,0,0,44.89,128.4v29.16H224.33a8.5,8.5,0,0,0,0,17H241.5V365.9a8.5,8.5,0,0,0,17,0V348.74h17.17a8.5,8.5,0,1,0,0-17H258.5V302.58A75,75,0,0,0,303.39,281Z" style="fill:#F58232"></path><path d="M360.13,126.64a1.34,1.34,0,0,0,0-.2c0-.25,0-.51,0-.76s0-.2,0-.3,0-.48-.07-.71a2.17,2.17,0,0,0,0-.25,8.26,8.26,0,0,0-.55-1.86l-.09-.18a5.58,5.58,0,0,0-.35-.69c0-.08-.09-.15-.14-.23a5.91,5.91,0,0,0-.41-.61l-.16-.21a6.5,6.5,0,0,0-.65-.74h0a7.38,7.38,0,0,0-.73-.65l-.22-.16c-.2-.15-.4-.28-.6-.41l-.25-.15a6.77,6.77,0,0,0-.66-.33l-.21-.1a8,8,0,0,0-1.84-.55l-.28,0c-.22,0-.45-.06-.68-.07l-.32,0c-.24,0-.49,0-.73,0h-.23a7.93,7.93,0,0,0-1,.14h0l-50.25,10.57a8.5,8.5,0,0,0,3.5,16.64l22.27-4.69-34.07,34.07a8.53,8.53,0,0,0-1.09,1.34,6.52,6.52,0,0,0-.43.72,8,8,0,0,0-.62,1.53,9,9,0,0,0-.32,1.61q0,.41,0,.81c0,.28,0,.55,0,.82a8.48,8.48,0,0,0,2.46,5.19,58.59,58.59,0,0,1,0,82.74,8.5,8.5,0,1,0,12,12,75.61,75.61,0,0,0,5.66-100.42l28.41-28.41-4.69,22.27a8.52,8.52,0,0,0,6.57,10.07,8.84,8.84,0,0,0,1.76.18,8.5,8.5,0,0,0,8.31-6.75L360,127.65a0,0,0,0,0,0,0A8.26,8.26,0,0,0,360.13,126.64Z" style="fill:#F58232"></path><path d="M360.13,126.64a1.34,1.34,0,0,0,0-.2c0-.25,0-.51,0-.76s0-.2,0-.3,0-.48-.07-.71a2.17,2.17,0,0,0,0-.25,8.26,8.26,0,0,0-.55-1.86l-.09-.18a5.58,5.58,0,0,0-.35-.69c0-.08-.09-.15-.14-.23a5.91,5.91,0,0,0-.41-.61l-.16-.21a6.5,6.5,0,0,0-.65-.74h0a7.38,7.38,0,0,0-.73-.65l-.22-.16c-.2-.15-.4-.28-.6-.41l-.25-.15a6.77,6.77,0,0,0-.66-.33l-.21-.1a8,8,0,0,0-1.84-.55l-.28,0c-.22,0-.45-.06-.68-.07l-.32,0c-.24,0-.49,0-.73,0h-.23a7.93,7.93,0,0,0-1,.14h0l-50.25,10.57a8.5,8.5,0,0,0,3.5,16.64l22.27-4.69-34.07,34.07a8.53,8.53,0,0,0-1.09,1.34,6.52,6.52,0,0,0-.43.72,8,8,0,0,0-.62,1.53,9,9,0,0,0-.32,1.61q0,.41,0,.81c0,.28,0,.55,0,.82a8.48,8.48,0,0,0,2.46,5.19,58.59,58.59,0,0,1,0,82.74,8.5,8.5,0,1,0,12,12,75.61,75.61,0,0,0,5.66-100.42l28.41-28.41-4.69,22.27a8.52,8.52,0,0,0,6.57,10.07,8.84,8.84,0,0,0,1.76.18,8.5,8.5,0,0,0,8.31-6.75L360,127.65a0,0,0,0,0,0,0A8.26,8.26,0,0,0,360.13,126.64Z" style="fill:#fff;opacity:0.4"></path></g></svg>