<svg width="400" height="400" viewBox="0 0 400 400" fill="none" xmlns="http://www.w3.org/2000/svg">
<path d="M400 305.92H0V306.12H400V305.92Z" fill="#EBEBEB"/>
<path d="M347.032 314.432H320.536V314.632H347.032V314.432Z" fill="#EBEBEB"/>
<path d="M250.456 314.336H243.504V314.536H250.456V314.336Z" fill="#EBEBEB"/>
<path d="M359.92 318.792H344.568V318.992H359.92V318.792Z" fill="#EBEBEB"/>
<path d="M91.68 321.448H57.1281V321.648H91.68V321.448Z" fill="#EBEBEB"/>
<path d="M88.712 312.712H83.6479V312.912H88.712V312.712Z" fill="#EBEBEB"/>
<path d="M198.76 313.568H150.04V313.768H198.76V313.568Z" fill="#EBEBEB"/>
<path d="M189.6 270.24H35.128C33.9179 270.238 32.758 269.756 31.9031 268.899C31.0482 268.043 30.568 266.882 30.568 265.672V48.528C30.5785 47.3248 31.0633 46.1744 31.9171 45.3266C32.7709 44.4788 33.9248 44.0021 35.128 44H189.6C190.811 44 191.973 44.4813 192.83 45.3379C193.687 46.1946 194.168 47.3565 194.168 48.568V265.672C194.168 266.884 193.687 268.045 192.83 268.902C191.973 269.759 190.811 270.24 189.6 270.24ZM35.128 44.16C33.9709 44.1621 32.862 44.6233 32.0445 45.4422C31.2271 46.2611 30.768 47.3709 30.768 48.528V265.672C30.768 266.829 31.2271 267.939 32.0445 268.758C32.862 269.577 33.9709 270.038 35.128 270.04H189.6C190.758 270.038 191.868 269.577 192.686 268.758C193.505 267.94 193.966 266.83 193.968 265.672V48.528C193.966 47.3702 193.505 46.2604 192.686 45.4417C191.868 44.623 190.758 44.1621 189.6 44.16H35.128Z" fill="#EBEBEB"/>
<path d="M362.648 270.24H208.168C206.957 270.238 205.796 269.756 204.94 268.9C204.084 268.044 203.602 266.883 203.6 265.672V48.528C203.613 47.3241 204.099 46.1737 204.954 45.3261C205.809 44.4785 206.964 44.002 208.168 44H362.648C363.85 44.0042 365.002 44.4818 365.854 45.3294C366.706 46.177 367.189 47.3262 367.2 48.528V265.672C367.2 266.881 366.721 268.04 365.868 268.896C365.014 269.753 363.857 270.236 362.648 270.24ZM208.168 44.16C207.01 44.1621 205.9 44.623 205.082 45.4417C204.263 46.2604 203.802 47.3702 203.8 48.528V265.672C203.802 266.83 204.263 267.94 205.082 268.758C205.9 269.577 207.01 270.038 208.168 270.04H362.648C363.806 270.038 364.916 269.577 365.734 268.758C366.553 267.94 367.014 266.83 367.016 265.672V48.528C367.014 47.3702 366.553 46.2604 365.734 45.4417C364.916 44.623 363.806 44.1621 362.648 44.16H208.168Z" fill="#EBEBEB"/>
<path d="M343.112 77.064H56.8879V196.176H343.112V77.064Z" fill="#F0F0F0"/>
<path d="M337.512 190.584V82.672L62.488 82.672V190.584H337.512Z" fill="#FAFAFA"/>
<path d="M98.696 190.576L126.904 82.664H147.704L119.496 190.576H98.696Z" fill="white"/>
<path d="M124.296 190.576L152.504 82.664H161.808L133.6 190.576H124.296Z" fill="white"/>
<path d="M169.816 190.576L198.032 82.664H218.832L190.616 190.576H169.816Z" fill="white"/>
<path d="M222.264 190.576L250.472 82.664H259.784L231.568 190.576H222.264Z" fill="white"/>
<path d="M136.168 190.584V82.672H134.744V190.584H136.168Z" fill="#E0E0E0"/>
<path d="M63.912 190.584L63.912 82.672H62.488L62.488 190.584H63.912Z" fill="#E0E0E0"/>
<path d="M134.744 190.584V82.672H129.144V190.584H134.744Z" fill="#F0F0F0"/>
<path d="M205.6 190.584V82.672H204.176V190.584H205.6Z" fill="#E0E0E0"/>
<path d="M204.176 190.584V82.672H198.576V190.584H204.176Z" fill="#F0F0F0"/>
<path d="M275.064 190.576V82.664H273.64V190.576H275.064Z" fill="#E0E0E0"/>
<path d="M273.64 190.576V82.664H268.04V190.576H273.64Z" fill="#F0F0F0"/>
<path d="M344.536 196.176V77.064H343.112V196.176H344.536Z" fill="#E0E0E0"/>
<path d="M347.736 68.888H52.2641C51.9358 68.8859 51.6216 68.7546 51.3896 68.5225C51.1575 68.2904 51.0261 67.9762 51.024 67.648C51.024 67.3184 51.1544 67.0022 51.3867 66.7683C51.6191 66.5345 51.9344 66.4021 52.2641 66.4H347.736C348.066 66.4021 348.381 66.5345 348.613 66.7683C348.846 67.0022 348.976 67.3184 348.976 67.648C348.974 67.9762 348.843 68.2904 348.611 68.5225C348.378 68.7546 348.064 68.8859 347.736 68.888Z" fill="#E0E0E0"/>
<g opacity="0.6">
<path d="M113.872 64H53.424V281.336H113.872V64Z" fill="#F5F5F5"/>
<path d="M86.1759 283.112H81.1119L82.5359 65.776H84.7999L86.1759 283.112Z" fill="#E6E6E6"/>
<path d="M69.3999 283.112H66.9519L67.6399 65.776H68.7359L69.3999 283.112Z" fill="#E6E6E6"/>
<path d="M103 283.112H100.552L101.24 65.776H102.336L103 283.112Z" fill="#E6E6E6"/>
</g>
<g opacity="0.6">
<path d="M345.856 64H285.408V281.336H345.856V64Z" fill="#F5F5F5"/>
<path d="M309.096 283.112H304.032L305.456 65.776H307.72L309.096 283.112Z" fill="#E6E6E6"/>
<path d="M297.92 283.112H295.48L296.16 65.776H297.256L297.92 283.112Z" fill="#E6E6E6"/>
<path d="M323.784 283.112H321.344L322.032 65.776H323.12L323.784 283.112Z" fill="#E6E6E6"/>
<path d="M336.232 283.112H333.792L334.472 65.776H335.568L336.232 283.112Z" fill="#E6E6E6"/>
</g>
<path d="M260.168 304.56H271.528V239.456H260.168V304.56Z" fill="#E6E6E6"/>
<path d="M128.472 304.56H264.544V239.456H128.472V304.56Z" fill="#F0F0F0"/>
<path d="M261.488 304.56H257.392H134.344V305.92H257.392H261.488H265.656V304.56H261.488Z" fill="#E0E0E0"/>
<path opacity="0.5" d="M132.352 269.8H260.664V243.528H132.352V269.8Z" fill="#FAFAFA"/>
<path opacity="0.5" d="M132.352 300.312H260.664V274.04H132.352V300.312Z" fill="#FAFAFA"/>
<path d="M151.8 256.664C151.8 257.235 151.631 257.794 151.313 258.268C150.996 258.743 150.545 259.114 150.017 259.332C149.49 259.551 148.909 259.608 148.349 259.497C147.788 259.385 147.274 259.11 146.87 258.706C146.466 258.302 146.191 257.788 146.08 257.227C145.968 256.667 146.025 256.087 146.244 255.559C146.462 255.031 146.833 254.58 147.308 254.263C147.782 253.945 148.341 253.776 148.912 253.776C149.291 253.776 149.667 253.851 150.017 253.996C150.368 254.141 150.686 254.354 150.954 254.622C151.222 254.89 151.435 255.208 151.58 255.559C151.725 255.909 151.8 256.285 151.8 256.664Z" fill="#E0E0E0"/>
<path d="M246.984 256.664C246.984 257.235 246.815 257.794 246.497 258.268C246.18 258.743 245.729 259.114 245.201 259.332C244.673 259.551 244.093 259.608 243.533 259.497C242.972 259.385 242.458 259.11 242.054 258.706C241.65 258.302 241.375 257.788 241.264 257.227C241.152 256.667 241.209 256.087 241.428 255.559C241.646 255.031 242.017 254.58 242.492 254.263C242.966 253.945 243.525 253.776 244.096 253.776C244.475 253.776 244.851 253.851 245.201 253.996C245.552 254.141 245.87 254.354 246.138 254.622C246.406 254.89 246.619 255.208 246.764 255.559C246.909 255.909 246.984 256.285 246.984 256.664Z" fill="#E0E0E0"/>
<path d="M148.912 290.064C150.507 290.064 151.8 288.771 151.8 287.176C151.8 285.581 150.507 284.288 148.912 284.288C147.317 284.288 146.024 285.581 146.024 287.176C146.024 288.771 147.317 290.064 148.912 290.064Z" fill="#E0E0E0"/>
<path d="M246.984 287.2C246.984 287.771 246.815 288.33 246.497 288.804C246.18 289.279 245.729 289.65 245.201 289.868C244.673 290.087 244.093 290.144 243.533 290.033C242.972 289.921 242.458 289.646 242.054 289.242C241.65 288.838 241.375 288.324 241.264 287.763C241.152 287.203 241.209 286.623 241.428 286.095C241.646 285.567 242.017 285.116 242.492 284.799C242.966 284.481 243.525 284.312 244.096 284.312C244.862 284.312 245.597 284.616 246.138 285.158C246.68 285.699 246.984 286.434 246.984 287.2Z" fill="#E0E0E0"/>
<path d="M199.392 256.664C199.392 257.235 199.223 257.794 198.905 258.268C198.588 258.743 198.137 259.114 197.609 259.332C197.081 259.551 196.501 259.608 195.941 259.497C195.38 259.385 194.866 259.11 194.462 258.706C194.058 258.302 193.783 257.788 193.671 257.227C193.56 256.667 193.617 256.087 193.836 255.559C194.054 255.031 194.425 254.58 194.899 254.263C195.374 253.945 195.933 253.776 196.504 253.776C196.883 253.776 197.259 253.851 197.609 253.996C197.96 254.141 198.278 254.354 198.546 254.622C198.814 254.89 199.027 255.208 199.172 255.559C199.317 255.909 199.392 256.285 199.392 256.664Z" fill="#E0E0E0"/>
<path d="M196.504 290.064C198.099 290.064 199.392 288.771 199.392 287.176C199.392 285.581 198.099 284.288 196.504 284.288C194.909 284.288 193.616 285.581 193.616 287.176C193.616 288.771 194.909 290.064 196.504 290.064Z" fill="#E0E0E0"/>
<path d="M256.128 228.4C256.128 231.332 254.963 234.144 252.89 236.218C250.816 238.291 248.004 239.456 245.072 239.456C242.14 239.456 239.328 238.291 237.254 236.218C235.181 234.144 234.016 231.332 234.016 228.4H256.128Z" fill="#F0F0F0"/>
<path d="M168.712 226.4C168.712 229.856 167.339 233.171 164.895 235.615C162.451 238.059 159.136 239.432 155.68 239.432C152.224 239.432 148.909 238.059 146.465 235.615C144.021 233.171 142.648 229.856 142.648 226.4H168.712Z" fill="#F0F0F0"/>
<path d="M224.736 231.784C224.736 233.819 223.928 235.77 222.489 237.209C221.05 238.648 219.099 239.456 217.064 239.456C215.029 239.456 213.078 238.648 211.639 237.209C210.2 235.77 209.392 233.819 209.392 231.784H224.736Z" fill="#F0F0F0"/>
<path d="M200 342.048C285.666 342.048 355.112 337.993 355.112 332.992C355.112 327.99 285.666 323.936 200 323.936C114.334 323.936 44.8879 327.99 44.8879 332.992C44.8879 337.993 114.334 342.048 200 342.048Z" fill="#F5F5F5"/>
<path d="M278.52 92.288C276.816 90.584 273.536 84.128 276.68 81.088C279.824 78.048 282.624 80.808 282.84 82.288C283.056 83.768 282.48 96.24 278.52 92.288Z" fill="#263238"/>
<path d="M277.8 324.52L270.656 324.584L268.712 308.072L275.848 308.008L277.8 324.52Z" fill="#FF8B7B"/>
<path d="M270.648 323.76L278.44 323.688C278.584 323.69 278.723 323.738 278.838 323.824C278.953 323.91 279.038 324.031 279.08 324.168L280.968 330.496C281.018 330.643 281.032 330.8 281.009 330.954C280.985 331.108 280.925 331.254 280.833 331.38C280.741 331.505 280.621 331.607 280.481 331.676C280.342 331.745 280.188 331.779 280.032 331.776C277.224 331.776 273.144 331.624 269.632 331.656C265.504 331.656 263.664 331.944 258.816 331.992C255.888 331.992 254.816 329.064 256.056 328.792C261.552 327.52 264.392 327.352 268.992 324.336C269.476 323.987 270.052 323.787 270.648 323.76Z" fill="#263238"/>
<path opacity="0.2" d="M268.712 308.08L269.72 316.592L276.856 316.528L275.856 308.016L268.712 308.08Z" fill="black"/>
<path d="M267.696 325.032C268.466 325.018 269.233 324.924 269.984 324.752C270.02 324.747 270.052 324.73 270.077 324.704C270.102 324.677 270.117 324.644 270.12 324.608C270.123 324.574 270.116 324.539 270.099 324.509C270.082 324.479 270.055 324.455 270.024 324.44C269.688 324.272 266.688 322.84 265.864 323.344C265.788 323.393 265.726 323.46 265.684 323.54C265.642 323.62 265.621 323.71 265.624 323.8C265.622 323.954 265.656 324.106 265.722 324.245C265.789 324.384 265.887 324.505 266.008 324.6C266.508 324.925 267.101 325.076 267.696 325.032ZM269.408 324.52C267.864 324.792 266.688 324.736 266.208 324.352C266.125 324.287 266.059 324.203 266.016 324.107C265.972 324.011 265.953 323.905 265.96 323.8C265.955 323.767 265.96 323.734 265.975 323.704C265.989 323.674 266.012 323.649 266.04 323.632C266.488 323.36 268.184 324 269.408 324.52Z" fill="#F58232"/>
<path d="M269.952 324.8C269.99 324.797 270.026 324.783 270.056 324.76C270.08 324.742 270.099 324.717 270.108 324.689C270.118 324.66 270.12 324.629 270.112 324.6C270.112 324.472 269.552 321.4 267.856 321.592C267.408 321.64 267.28 321.872 267.256 322.048C267.136 322.848 268.968 324.4 269.88 324.784L269.952 324.8ZM268 321.92C269.024 321.92 269.536 323.592 269.712 324.32C268.768 323.792 267.52 322.576 267.592 322.096C267.592 322.096 267.592 321.96 267.896 321.928L268 321.92Z" fill="#F58232"/>
<path d="M272.752 128.344L272.016 129.144L271.328 129.824C270.872 130.272 270.4 130.696 269.928 131.112C268.989 131.955 268.029 132.755 267.048 133.512C265.068 135.086 262.983 136.524 260.808 137.816C259.712 138.464 258.584 139.08 257.44 139.664C256.296 140.248 255.088 140.752 253.872 141.264C251.378 142.259 248.781 142.97 246.128 143.384L245.536 143.472C245.151 143.522 244.764 143.546 244.376 143.544C243.485 143.536 242.604 143.362 241.776 143.032C240.955 142.703 240.204 142.222 239.56 141.616C239.047 141.127 238.601 140.573 238.232 139.968C237.721 139.09 237.336 138.145 237.088 137.16C236.894 136.397 236.752 135.622 236.664 134.84C236.518 133.488 236.478 132.126 236.544 130.768C236.6 129.472 236.704 128.224 236.848 127C237.152 124.544 237.584 122.2 238.112 119.8C238.64 117.4 239.24 115.184 240.016 112.864L245.272 113.904C245.08 118.4 244.864 123.008 245.008 127.36C245.034 129.381 245.249 131.395 245.648 133.376C245.727 133.742 245.837 134.101 245.976 134.448C246.088 134.72 246.224 134.888 246.216 134.816C246.17 134.694 246.096 134.585 246 134.496C245.782 134.285 245.527 134.117 245.248 134C244.961 133.879 244.655 133.806 244.344 133.784C244.2 133.784 244.136 133.784 244.048 133.784H244.136L244.304 133.736C246.199 133.249 248.043 132.579 249.808 131.736C251.655 130.845 253.443 129.834 255.16 128.712C256.896 127.56 258.608 126.312 260.256 124.992C261.056 124.336 261.896 123.648 262.656 122.952L263.824 121.896L264.384 121.376L264.872 120.912L272.752 128.344Z" fill="#FF8B7B"/>
<path d="M276.984 125.52C276.712 117.976 270.52 115.352 262.76 120.496C259.339 122.665 256.046 125.029 252.896 127.576L257.912 143.688C257.912 143.688 267.512 140.64 273.064 134.656C276.8 130.592 277.08 128.088 276.984 125.52Z" fill="#263238"/>
<path opacity="0.2" d="M267.536 128.736C267.536 128.736 262.904 135.36 261.264 142.4C263.541 141.429 265.735 140.273 267.824 138.944L267.536 128.736Z" fill="black"/>
<path d="M245.008 116.296L247.696 110.224L240.088 108C240.088 108 238.784 110.904 239.528 115.888L245.008 116.296Z" fill="#FF8B7B"/>
<path d="M248.504 103.104L241.888 103.896L240.088 108L247.696 110.224L248.504 103.104Z" fill="#FF8B7B"/>
<path d="M267.584 180.208C267.584 180.208 262.672 221.376 262.128 243.408C261.568 266.296 266.056 312.464 266.056 312.464L278.944 312.192C278.944 312.192 280.496 262.768 282.368 240.12C284.4 215.432 289.52 179.76 289.52 179.76L267.584 180.208Z" fill="#F58232"/>
<path opacity="0.6" d="M267.584 180.208C267.584 180.208 262.672 221.376 262.128 243.408C261.568 266.296 266.056 312.464 266.056 312.464L278.944 312.192C278.944 312.192 280.496 262.768 282.368 240.12C284.4 215.432 289.52 179.76 289.52 179.76L267.584 180.208Z" fill="white"/>
<path opacity="0.2" d="M282.936 191.864C277.176 204.56 278.72 232.92 281.992 245.08C282.112 243.312 282.24 241.64 282.368 240.096C283.704 223.824 286.368 202.792 288.056 190.336C286.488 188.064 284.736 187.888 282.936 191.864Z" fill="black"/>
<path d="M280.528 312.744L265.376 313.048L264.256 308.016L280.344 307.976L280.528 312.744Z" fill="#F58232"/>
<path d="M309.632 324.52L302.496 324.584L300.552 308.072L307.688 308.008L309.632 324.52Z" fill="#FF8B7B"/>
<path d="M302.48 323.76L310.28 323.688C310.423 323.691 310.562 323.739 310.677 323.825C310.792 323.911 310.877 324.031 310.92 324.168L312.808 330.496C312.856 330.643 312.869 330.8 312.845 330.953C312.82 331.106 312.76 331.251 312.668 331.376C312.577 331.501 312.457 331.603 312.319 331.672C312.18 331.742 312.027 331.777 311.872 331.776C309.056 331.776 304.984 331.624 301.472 331.656C297.344 331.656 295.496 331.944 290.656 331.992C287.728 331.992 286.656 329.064 287.896 328.792C293.384 327.52 296.224 327.352 300.832 324.336C301.313 323.987 301.886 323.787 302.48 323.76Z" fill="#263238"/>
<path opacity="0.2" d="M300.552 308.08L301.552 316.592L308.696 316.528L307.696 308.016L300.552 308.08Z" fill="black"/>
<path d="M299.536 325.032C300.306 325.017 301.073 324.923 301.824 324.752C301.859 324.746 301.89 324.729 301.914 324.703C301.937 324.677 301.951 324.643 301.952 324.608C301.957 324.574 301.951 324.54 301.936 324.51C301.92 324.479 301.895 324.455 301.864 324.44C301.52 324.272 298.52 322.84 297.704 323.344C297.627 323.391 297.564 323.459 297.521 323.539C297.479 323.619 297.459 323.709 297.464 323.8C297.462 323.953 297.495 324.105 297.561 324.243C297.626 324.382 297.721 324.504 297.84 324.6C298.344 324.924 298.939 325.075 299.536 325.032ZM301.248 324.52C299.704 324.792 298.528 324.736 298.048 324.352C297.965 324.286 297.899 324.202 297.855 324.106C297.81 324.01 297.789 323.906 297.792 323.8C297.787 323.767 297.792 323.734 297.807 323.704C297.821 323.674 297.844 323.649 297.872 323.632C298.32 323.36 300 324 301.248 324.52Z" fill="#F58232"/>
<path d="M301.784 324.8C301.809 324.799 301.833 324.793 301.855 324.782C301.877 324.771 301.897 324.756 301.912 324.737C301.928 324.718 301.94 324.696 301.947 324.673C301.954 324.649 301.955 324.624 301.952 324.6C301.952 324.472 301.392 321.4 299.696 321.592C299.248 321.64 299.12 321.872 299.088 322.048C298.976 322.848 300.808 324.4 301.72 324.784L301.784 324.8ZM299.84 321.92C300.856 321.92 301.376 323.592 301.552 324.32C300.608 323.792 299.352 322.576 299.424 322.096C299.424 322.096 299.424 321.96 299.728 321.928L299.84 321.92Z" fill="#F58232"/>
<path d="M280.16 179.936C280.16 179.936 283.72 224.232 286.32 246.088C289.016 268.824 297.896 312.44 297.896 312.44L310.784 312.168C310.784 312.168 307.248 262.648 305.88 239.96C304.384 215.2 304 179.392 304 179.392L280.16 179.936Z" fill="#F58232"/>
<path opacity="0.6" d="M280.16 179.936C280.16 179.936 283.72 224.232 286.32 246.088C289.016 268.824 297.896 312.44 297.896 312.44L310.784 312.168C310.784 312.168 307.248 262.648 305.88 239.96C304.384 215.2 304 179.392 304 179.392L280.16 179.936Z" fill="white"/>
<path d="M312.368 312.744L297.208 313.048L296.096 308.016L312.184 307.976L312.368 312.744Z" fill="#F58232"/>
<path d="M266.696 118.52C266.696 118.52 261.424 138.088 267.584 180.208C279.088 179.96 298.408 179.512 304 179.408C304.144 173.544 299.816 144.792 304.88 117.072C301.237 116.443 297.552 116.085 293.856 116C288.446 115.802 283.029 115.92 277.632 116.352C273.936 116.789 270.279 117.514 266.696 118.52Z" fill="#263238"/>
<path opacity="0.2" d="M302.672 136.8L296.712 131.864C297.104 135.72 300.592 145.168 302.432 149.952C302.4 145.76 302.44 141.336 302.672 136.8Z" fill="black"/>
<path d="M281.352 129.864L274.848 142.736C274.711 143.006 274.663 143.313 274.711 143.613C274.759 143.912 274.901 144.188 275.116 144.402C275.332 144.615 275.609 144.755 275.909 144.801C276.208 144.846 276.515 144.796 276.784 144.656L281.032 142.32C281.263 142.196 281.524 142.139 281.786 142.156C282.047 142.173 282.299 142.263 282.512 142.416L286.696 145.432C286.936 145.607 287.227 145.7 287.524 145.697C287.821 145.694 288.109 145.595 288.346 145.416C288.583 145.237 288.756 144.986 288.839 144.7C288.922 144.415 288.911 144.111 288.808 143.832L283.92 130.088C283.835 129.827 283.675 129.596 283.46 129.425C283.245 129.254 282.984 129.15 282.71 129.126C282.436 129.102 282.162 129.159 281.92 129.29C281.679 129.422 281.481 129.621 281.352 129.864Z" fill="white"/>
<path d="M291.856 97.728C290.944 102.976 290.128 112.56 293.856 115.96C293.856 115.96 292.768 120.712 282.84 122.36C276.168 120.216 277.632 116.344 277.632 116.344C283.424 114.824 283.176 110.512 282.08 106.48L291.856 97.728Z" fill="#FF8B7B"/>
<path opacity="0.2" d="M287.872 101.288L282.08 106.44C282.35 107.379 282.537 108.34 282.64 109.312C284.864 108.944 287.864 106.432 288.048 104.104C288.161 103.162 288.102 102.208 287.872 101.288Z" fill="black"/>
<path d="M295.032 91.272C293.104 98.088 292.328 102.176 288.072 104.968C281.672 109.16 273.824 104.168 273.672 96.896C273.528 90.368 276.696 80.312 284.072 79.032C285.692 78.7446 287.359 78.8756 288.914 79.4127C290.47 79.9497 291.862 80.875 292.96 82.1008C294.057 83.3266 294.824 84.8124 295.186 86.4174C295.549 88.0223 295.496 89.6933 295.032 91.272Z" fill="#FF8B7B"/>
<path d="M290.928 95.448C290.032 93.272 289.384 86.104 293.12 84.344C296.856 82.584 300.736 86.88 299.752 88.912C298.24 92.064 293.008 100.488 290.928 95.448Z" fill="#263238"/>
<path d="M293.16 86.872C292.24 84.472 281.272 83.112 279.736 80.528C277.912 77.456 285.392 77.088 290.536 78.648C295.056 80.024 298.072 81.352 297.544 84.712C297.248 86.616 293.16 86.872 293.16 86.872Z" fill="#263238"/>
<path d="M295.544 84.4C295.544 84.4 297.944 85.056 299.256 83.296C298.84 85.04 296.8 86.8 295.544 84.4Z" fill="#263238"/>
<path d="M284.56 77C281.264 74.44 276.776 77.448 277.2 80.784C277.624 84.12 288.736 86.656 288.736 86.656C288.736 86.656 288.936 80.4 284.56 77Z" fill="#263238"/>
<path d="M277.208 80.8C277.712 83.136 279.416 84.968 282.864 86.328C280.868 84.8523 279.356 82.8168 278.52 80.48L277.208 80.8Z" fill="#263238"/>
<path d="M284.128 90.928C284.008 91.496 283.616 91.888 283.248 91.808C282.88 91.728 282.68 91.2 282.8 90.64C282.92 90.08 283.32 89.688 283.688 89.768C284.056 89.848 284.256 90.4 284.128 90.928Z" fill="#263238"/>
<path d="M277.776 89.552C277.648 90.112 277.256 90.504 276.888 90.424C276.52 90.344 276.32 89.824 276.44 89.264C276.56 88.704 276.96 88.312 277.328 88.384C277.696 88.456 277.896 88.992 277.776 89.552Z" fill="#263238"/>
<path d="M279.736 90.272C278.692 91.8457 277.434 93.2672 276 94.496C276.8 95.64 278.584 95.584 278.584 95.584L279.736 90.272Z" fill="#FF5652"/>
<path d="M279.88 97.496C280.631 97.6826 281.416 97.6847 282.169 97.5022C282.921 97.3198 283.618 96.9581 284.2 96.448C284.216 96.4324 284.229 96.4137 284.237 96.3931C284.246 96.3725 284.25 96.3504 284.25 96.328C284.25 96.3057 284.246 96.2835 284.237 96.2629C284.229 96.2423 284.216 96.2236 284.2 96.208C284.167 96.1776 284.125 96.1608 284.08 96.1608C284.035 96.1608 283.993 96.1776 283.96 96.208C283.414 96.6677 282.768 96.9933 282.073 97.1586C281.378 97.3239 280.655 97.3244 279.96 97.16C279.915 97.1505 279.869 97.159 279.831 97.1838C279.792 97.2085 279.766 97.2474 279.756 97.292C279.746 97.3366 279.755 97.3831 279.78 97.4213C279.805 97.4596 279.843 97.4865 279.888 97.496H279.88Z" fill="#263238"/>
<path d="M286.488 89.296C286.549 89.3083 286.613 89.3036 286.672 89.2824C286.731 89.2612 286.783 89.2243 286.822 89.1758C286.862 89.1272 286.887 89.0688 286.896 89.0068C286.905 88.9448 286.897 88.8816 286.872 88.824C286.656 88.3313 286.326 87.8972 285.908 87.5577C285.491 87.2182 284.998 86.9832 284.472 86.872C284.383 86.8605 284.293 86.8842 284.222 86.938C284.15 86.9918 284.102 87.0714 284.088 87.16C284.081 87.2036 284.083 87.2481 284.093 87.291C284.104 87.3339 284.123 87.3743 284.149 87.41C284.175 87.4457 284.207 87.4759 284.245 87.4988C284.283 87.5218 284.324 87.5372 284.368 87.544C284.783 87.6352 285.17 87.8244 285.497 88.0958C285.824 88.3672 286.082 88.7129 286.248 89.104C286.27 89.1524 286.304 89.195 286.345 89.2283C286.387 89.2616 286.436 89.2848 286.488 89.296Z" fill="#263238"/>
<path d="M275.456 86.76C275.519 86.7774 275.585 86.7752 275.647 86.7537C275.708 86.7323 275.762 86.6926 275.8 86.64C276.053 86.3002 276.383 86.0246 276.762 85.8357C277.142 85.6467 277.56 85.5495 277.984 85.552C278.073 85.5605 278.162 85.5332 278.231 85.4762C278.3 85.4192 278.344 85.3371 278.352 85.248C278.361 85.1589 278.333 85.0701 278.276 85.001C278.219 84.932 278.137 84.8885 278.048 84.88C277.511 84.8641 276.979 84.9779 276.495 85.2119C276.012 85.4459 275.592 85.7931 275.272 86.224C275.244 86.2582 275.223 86.2979 275.21 86.3405C275.197 86.3831 275.194 86.4279 275.199 86.472C275.204 86.5162 275.218 86.5588 275.24 86.5973C275.263 86.6358 275.292 86.6694 275.328 86.696C275.364 86.7281 275.409 86.7501 275.456 86.76Z" fill="#263238"/>
<path d="M306.624 122.528C308.08 125.072 309.296 127.536 310.56 130.072C311.824 132.608 312.96 135.16 314.04 137.768C315.12 140.376 316.168 143.024 317.08 145.768C318.028 148.505 318.829 151.29 319.48 154.112L319.968 156.296C320.181 157.322 320.273 158.369 320.24 159.416C320.172 161.362 319.741 163.277 318.968 165.064C317.61 168.075 315.678 170.792 313.28 173.064C311.141 175.129 308.811 176.985 306.32 178.608C305.112 179.408 303.864 180.144 302.608 180.848C301.352 181.552 300.104 182.2 298.704 182.816L296.048 178.168C297.016 177.368 298.08 176.568 299.072 175.704C300.064 174.84 301.032 173.96 301.992 173.08C303.846 171.36 305.565 169.502 307.136 167.52C308.533 165.821 309.616 163.887 310.336 161.808C310.584 161.034 310.681 160.219 310.624 159.408C310.601 159.082 310.539 158.76 310.44 158.448L309.896 156.656C308.28 151.685 306.356 146.82 304.136 142.088C303.04 139.688 301.872 137.288 300.704 134.888C299.536 132.488 298.304 130.088 297.112 127.808L306.624 122.528Z" fill="#FF8B7B"/>
<path d="M305.152 117.112C311.824 118.552 316.464 135.96 316.464 135.96L304.536 146.784C300.744 142.565 297.761 137.683 295.736 132.384C292.576 123.672 298.016 115.56 305.152 117.112Z" fill="#263238"/>
<path d="M297.496 177.344L289.824 177.424L294.624 185.16C294.624 185.16 300.088 183.808 300.576 181.064L297.496 177.344Z" fill="#FF8B7B"/>
<path d="M285.048 181.992L289.28 188.2L294.584 185.16L289.824 177.424L285.048 181.992Z" fill="#FF8B7B"/>
<path d="M297.128 97.512C296.276 99.0803 294.838 100.248 293.128 100.76C290.856 101.424 289.696 99.4 290.304 97.248C290.856 95.312 292.704 92.632 294.976 92.912C297.248 93.192 298.144 95.584 297.128 97.512Z" fill="#FF8B7B"/>
<path d="M229.131 229.877L220.601 230.496L220.659 231.294L229.189 230.675L229.131 229.877Z" fill="#F58232"/>
<path d="M236.795 229.324L232.606 229.628L232.664 230.426L236.853 230.122L236.795 229.324Z" fill="#F58232"/>
<path d="M273.6 135.416L132.352 145.6C129.412 145.829 126.682 147.209 124.752 149.439C122.823 151.669 121.852 154.57 122.048 157.512L126.848 224.088C127.075 227.032 128.456 229.767 130.69 231.699C132.924 233.63 135.83 234.601 138.776 234.4L146.776 233.824C147.357 233.782 147.931 233.973 148.372 234.354C148.813 234.735 149.085 235.275 149.128 235.856L150.024 248.192C150.039 248.431 150.124 248.66 150.27 248.85C150.416 249.04 150.615 249.181 150.842 249.257C151.069 249.333 151.314 249.339 151.544 249.275C151.775 249.21 151.981 249.078 152.136 248.896L165.528 233.416C166.091 232.768 166.888 232.368 167.744 232.304L280 224.216C282.941 223.989 285.674 222.61 287.605 220.38C289.535 218.149 290.508 215.247 290.312 212.304L285.512 145.728C285.285 142.787 283.906 140.054 281.676 138.123C279.445 136.193 276.543 135.22 273.6 135.416Z" fill="#F58232"/>
<path d="M152.984 176.16L160.616 175.608L161.24 184.248L169.576 183.648L168.952 175.008L176.616 174.448L178.4 199.136L170.736 199.688L170.016 189.704L161.68 190.312L162.4 200.296L154.776 200.848L152.984 176.16Z" fill="white"/>
<path opacity="0.2" d="M132.352 145.6C129.412 145.829 126.682 147.209 124.752 149.439C122.823 151.669 121.852 154.57 122.048 157.512L126.848 224.088C127.075 227.032 128.456 229.767 130.69 231.699C132.924 233.63 135.83 234.601 138.776 234.4L139.952 234.312C141.906 234.171 143.759 233.389 145.222 232.087C146.686 230.785 147.68 229.036 148.048 227.112L164.136 143.304L132.352 145.6Z" fill="black"/>
<path d="M202.344 190.128L188.6 191.12C188.705 192.01 189.079 192.847 189.672 193.52C190.012 193.878 190.43 194.152 190.894 194.321C191.357 194.491 191.853 194.55 192.344 194.496C193.018 194.448 193.668 194.227 194.232 193.856C194.673 193.522 195.05 193.11 195.344 192.64L202.144 192.776C201.404 194.453 200.203 195.884 198.68 196.904C197.283 197.789 195.219 198.323 192.488 198.504C190.579 198.726 188.644 198.521 186.824 197.904C185.365 197.291 184.112 196.272 183.216 194.968C182.188 193.483 181.598 191.74 181.512 189.936C181.369 188.683 181.49 187.415 181.868 186.212C182.246 185.009 182.871 183.898 183.704 182.952C185.368 181.096 187.768 180.053 190.904 179.824C192.98 179.577 195.085 179.824 197.048 180.544C198.551 181.186 199.817 182.279 200.672 183.672C201.651 185.402 202.199 187.342 202.272 189.328L202.344 190.128ZM195.144 187.344C195.047 186.304 194.598 185.327 193.872 184.576C193.506 184.295 193.087 184.091 192.639 183.979C192.191 183.866 191.726 183.847 191.27 183.922C190.815 183.997 190.38 184.165 189.992 184.415C189.604 184.665 189.272 184.992 189.016 185.376C188.589 186.129 188.373 186.983 188.392 187.848L195.144 187.344Z" fill="white"/>
<path d="M204.464 172.44L211.336 171.944L213.12 196.624L206.248 197.12L204.464 172.44Z" fill="white"/>
<path d="M215.944 171.608L222.816 171.112L224.6 195.792L217.736 196.288L215.944 171.608Z" fill="white"/>
<path d="M227.496 186.648C227.366 185.396 227.501 184.131 227.893 182.934C228.284 181.738 228.923 180.637 229.768 179.704C231.48 177.8 233.904 176.733 237.04 176.504C240.613 176.248 243.392 177.091 245.376 179.032C247.024 180.77 247.976 183.053 248.051 185.446C248.126 187.84 247.32 190.178 245.784 192.016C244.088 193.904 241.629 194.971 238.408 195.216C235.906 195.516 233.378 194.921 231.272 193.536C230.152 192.759 229.228 191.732 228.573 190.537C227.917 189.341 227.549 188.01 227.496 186.648ZM234.368 186.136C234.355 187.399 234.789 188.626 235.592 189.6C235.916 189.932 236.308 190.189 236.742 190.354C237.175 190.519 237.639 190.588 238.102 190.556C238.564 190.524 239.014 190.392 239.421 190.169C239.827 189.946 240.181 189.637 240.456 189.264C241.103 188.15 241.345 186.848 241.144 185.576C241.152 184.339 240.724 183.138 239.936 182.184C239.628 181.846 239.246 181.584 238.82 181.417C238.394 181.251 237.936 181.185 237.48 181.224C237.005 181.246 236.541 181.377 236.125 181.608C235.709 181.838 235.351 182.161 235.08 182.552C234.435 183.628 234.194 184.898 234.4 186.136H234.368Z" fill="white"/>
<path d="M250.216 169.128L257.536 168.6L257.944 174.2L257.344 185.6L252.816 185.928L250.616 174.728L250.216 169.128ZM251.816 187.752L258.648 187.256L259.088 193.304L252.248 193.792L251.816 187.752Z" fill="white"/>
<path d="M130.4 123.68C130.364 124.851 130.426 126.023 130.584 127.184C123.335 129.605 115.604 130.217 108.064 128.968C108.426 127.6 108.646 126.198 108.72 124.784C108.468 126.207 107.973 127.577 107.256 128.832C105.832 128.56 105.032 128.328 105.032 128.328C105.032 128.328 106.488 120.456 103.864 114.728C101.24 109 102.552 105.8 104.536 104.896C108.216 93.584 122.048 95.368 126.728 99.96C132.664 105.784 132.696 122.192 133.752 125.944C132.88 126.32 132.024 126.664 131.168 126.968C130.739 125.92 130.48 124.81 130.4 123.68Z" fill="#263238"/>
<path d="M136.12 141.288L136.84 143.568C137.104 144.368 137.368 145.168 137.64 145.928C138.176 147.528 138.736 149.128 139.336 150.664C139.936 152.2 140.512 153.816 141.136 155.384L142.064 157.784L142.296 158.376L142.352 158.512C142.253 158.425 142.139 158.358 142.016 158.312C141.84 158.248 141.768 158.312 141.88 158.312C142.073 158.311 142.264 158.282 142.448 158.224C143.074 158.026 143.675 157.757 144.24 157.424C145.604 156.629 146.909 155.736 148.144 154.752C149.44 153.744 150.712 152.664 151.96 151.552C153.208 150.44 154.464 149.28 155.672 148.144L158.128 150.224C157.104 151.696 156.024 153.04 154.928 154.408C153.832 155.776 152.6 157.056 151.336 158.328C150.035 159.656 148.619 160.866 147.104 161.944C146.237 162.551 145.306 163.061 144.328 163.464C143.707 163.713 143.056 163.88 142.392 163.96C141.49 164.072 140.575 163.948 139.736 163.6C138.821 163.21 138.042 162.559 137.496 161.728C137.376 161.544 137.264 161.36 137.176 161.192L136.96 160.76L136.672 160.176C136.296 159.376 135.872 158.576 135.544 157.824C134.816 156.224 134.088 154.624 133.424 153.024C132.76 151.424 132.112 149.776 131.496 148.128C131.208 147.328 130.92 146.456 130.648 145.616C130.376 144.776 130.112 143.952 129.848 142.968L136.12 141.288Z" fill="#FFC3BD"/>
<path d="M134.224 134.184C136.984 134.888 138.912 146.232 138.912 146.232L131.312 151.4C131.312 151.4 124.032 139.952 126.152 136.92C128.36 133.768 130.2 133.16 134.224 134.184Z" fill="#F58232"/>
<path d="M134.224 134.184C136.984 134.888 138.912 146.232 138.912 146.232L131.312 151.4C131.312 151.4 124.032 139.952 126.152 136.92C128.36 133.768 130.2 133.16 134.224 134.184Z" fill="#F58232"/>
<path opacity="0.4" d="M134.224 134.184C136.984 134.888 138.912 146.232 138.912 146.232L131.312 151.4C131.312 151.4 124.032 139.952 126.152 136.92C128.36 133.768 130.2 133.16 134.224 134.184Z" fill="white"/>
<path opacity="0.3" d="M133.976 136.72L136.096 148.152L131.824 151.048L133.976 136.72Z" fill="black"/>
<path d="M155.544 148.416L158.08 142.304L161.208 148.416C161.208 148.416 159.176 151.456 156.496 150.712L155.544 148.416Z" fill="#FFC3BD"/>
<path d="M160.872 141.672L164.888 143.288L161.208 148.416L158.072 142.304L160.872 141.672Z" fill="#FFC3BD"/>
<path d="M119.304 325.16H126L126.448 309.664H119.752L119.304 325.16Z" fill="#FFC3BD"/>
<path d="M74.408 305.2L80.56 307.824L88.616 294.416L82.456 291.792L74.408 305.2Z" fill="#FFC3BD"/>
<path d="M81.744 306.912L75.344 302.976C75.2345 302.906 75.103 302.878 74.9746 302.899C74.8461 302.919 74.7298 302.987 74.648 303.088L70.8 307.704C70.7042 307.825 70.6355 307.965 70.5983 308.114C70.5611 308.264 70.5564 308.42 70.5844 308.571C70.6125 308.723 70.6726 308.867 70.7609 308.993C70.8491 309.119 70.9634 309.225 71.096 309.304C73.352 310.64 74.504 311.168 77.32 312.896C79.056 313.968 81.472 315.696 83.864 317.168C86.256 318.64 87.864 316.368 86.976 315.528C83.096 311.824 83.208 310.064 82.48 307.872C82.359 307.473 82.0975 307.132 81.744 306.912Z" fill="#263238"/>
<path d="M126.224 324.384H118.712C118.583 324.383 118.457 324.428 118.359 324.512C118.26 324.596 118.195 324.712 118.176 324.84L117.32 330.792C117.299 330.945 117.312 331.1 117.357 331.247C117.402 331.395 117.478 331.531 117.581 331.646C117.684 331.76 117.81 331.852 117.952 331.913C118.093 331.974 118.246 332.004 118.4 332C121.024 331.96 122.288 331.8 125.6 331.8C127.632 331.8 131.84 332.016 134.648 332.016C137.456 332.016 137.6 329.24 136.432 328.984C131.192 327.856 129.128 326.304 127.36 324.824C127.047 324.545 126.643 324.389 126.224 324.384Z" fill="#263238"/>
<path opacity="0.2" d="M126.44 309.672L126.216 317.656H119.52L119.752 309.672H126.44Z" fill="black"/>
<path opacity="0.2" d="M82.456 291.8L88.608 294.416L84.456 301.328L78.304 298.704L82.456 291.8Z" fill="black"/>
<path d="M134.224 134.184C134.224 134.184 137.424 135.304 131.024 174.56H103.824C104.28 163.504 104.296 156.688 99.0239 133.992C102.827 133.206 106.683 132.698 110.56 132.472C114.669 132.176 118.795 132.176 122.904 132.472C128.216 132.952 134.224 134.184 134.224 134.184Z" fill="#F58232"/>
<path opacity="0.4" d="M134.224 134.184C134.224 134.184 137.424 135.304 131.024 174.56H103.824C104.28 163.504 104.296 156.688 99.0239 133.992C102.827 133.206 106.683 132.698 110.56 132.472C114.669 132.176 118.795 132.176 122.904 132.472C128.216 132.952 134.224 134.184 134.224 134.184Z" fill="white"/>
<path d="M110.576 132.464C114.686 132.176 118.81 132.176 122.92 132.464C123.584 132.528 124.264 132.6 124.936 132.68C125.216 133.1 125.395 133.579 125.46 134.08C125.525 134.581 125.475 135.09 125.312 135.568C124.44 137.72 121.312 137.968 119.04 137.968C110.632 137.968 109.208 133.056 109.152 132.848L109.072 132.552L110.576 132.464Z" fill="white"/>
<path d="M111.8 118.576C112.6 122.576 113.36 129.824 110.576 132.472C110.576 132.472 111.664 136.472 119.04 136.472C127.152 136.472 122.92 132.472 122.92 132.472C118.488 131.416 118.608 128.128 119.376 125.048L111.8 118.576Z" fill="#FFC3BD"/>
<path d="M112.608 115.752C111.656 118.896 112.976 126.336 114.936 129.216C111.072 127 109.768 120.248 109.768 120.248L112.608 115.752Z" fill="#263238"/>
<path opacity="0.2" d="M114.888 121.216L119.376 125.04C119.179 125.757 119.051 126.491 118.992 127.232C117.304 126.984 114.992 125.128 114.8 123.36C114.701 122.646 114.73 121.92 114.888 121.216Z" fill="black"/>
<path d="M108.136 111.488C109.688 117.944 110.2 120.712 114.088 123.488C119.936 127.656 127.528 124.344 127.936 117.552C128.304 111.44 125.712 101.912 118.872 100.44C117.365 100.107 115.798 100.165 114.319 100.608C112.841 101.051 111.5 101.865 110.425 102.972C109.349 104.079 108.574 105.442 108.174 106.932C107.773 108.423 107.76 109.991 108.136 111.488Z" fill="#FFC3BD"/>
<path d="M131.032 174.56C131.032 174.56 136.304 226.096 135.832 246.496C135.376 267.712 127.6 316.096 127.6 316.096H118.56C118.56 316.096 119.992 268.936 119.192 248.096C118.32 225.376 111.104 174.544 111.104 174.544L131.032 174.56Z" fill="#F58232"/>
<path opacity="0.4" d="M131.032 174.56C131.032 174.56 136.304 226.096 135.832 246.496C135.376 267.712 127.6 316.096 127.6 316.096H118.56C118.56 316.096 119.992 268.936 119.192 248.096C118.32 225.376 111.104 174.544 111.104 174.544L131.032 174.56Z" fill="black"/>
<path d="M117.808 316.432H128.416L129.2 313.048L117.312 312.632L117.808 316.432Z" fill="#F58232"/>
<path opacity="0.2" d="M119.312 187.384C125.984 200.808 120.648 225.296 118.288 234.408C117.08 220.728 115.04 204.008 113.448 191.712C114.456 184.8 116.232 181.192 119.312 187.384Z" fill="black"/>
<path d="M123.856 174.56C123.856 174.56 117.696 228.16 113.048 245.336C107.536 265.76 86.552 300.536 86.552 300.536L78.16 296.968C78.16 296.968 91.144 257.48 95.368 246.72C104.368 223.76 96.664 189.544 103.856 174.56H123.856Z" fill="#F58232"/>
<path opacity="0.4" d="M123.856 174.56C123.856 174.56 117.696 228.16 113.048 245.336C107.536 265.76 86.552 300.536 86.552 300.536L78.16 296.968C78.16 296.968 91.144 257.48 95.368 246.72C104.368 223.76 96.664 189.544 103.856 174.56H123.856Z" fill="black"/>
<path d="M77 296.992L87.416 301.424L89.92 298.624L77.904 292.856L77 296.992Z" fill="#F58232"/>
<path d="M118.4 111.576C118.496 112.104 118.848 112.488 119.2 112.424C119.552 112.36 119.752 111.88 119.656 111.352C119.56 110.824 119.208 110.44 118.856 110.496C118.504 110.552 118.264 111.04 118.4 111.576Z" fill="#263238"/>
<path d="M124.368 110.52C124.456 111.048 124.816 111.432 125.168 111.368C125.52 111.304 125.728 110.824 125.632 110.296C125.536 109.768 125.184 109.384 124.832 109.44C124.48 109.496 124.272 109.984 124.368 110.52Z" fill="#263238"/>
<path d="M124.68 109.504L125.888 108.904C125.888 108.904 125.408 110.016 124.68 109.504Z" fill="#263238"/>
<path d="M122.936 111.712C123.623 112.841 124.463 113.87 125.432 114.768C125.195 115.008 124.908 115.194 124.592 115.313C124.275 115.432 123.937 115.481 123.6 115.456L122.936 111.712Z" fill="#ED847E"/>
<path d="M121.192 117.96C121.495 117.959 121.798 117.933 122.096 117.88C122.119 117.879 122.141 117.873 122.162 117.863C122.182 117.853 122.2 117.838 122.214 117.82C122.229 117.802 122.239 117.782 122.245 117.76C122.25 117.737 122.251 117.714 122.247 117.692C122.243 117.669 122.234 117.648 122.221 117.629C122.208 117.61 122.191 117.595 122.172 117.583C122.152 117.571 122.13 117.564 122.107 117.561C122.085 117.559 122.062 117.561 122.04 117.568C121.381 117.699 120.701 117.673 120.054 117.491C119.408 117.308 118.813 116.976 118.32 116.52C118.29 116.491 118.25 116.474 118.208 116.474C118.166 116.474 118.126 116.491 118.096 116.52C118.08 116.534 118.068 116.552 118.06 116.571C118.051 116.59 118.047 116.611 118.047 116.632C118.047 116.653 118.051 116.674 118.06 116.693C118.068 116.712 118.08 116.73 118.096 116.744C118.931 117.536 120.041 117.972 121.192 117.96Z" fill="#263238"/>
<path d="M110.4 107.704C110.575 109.405 110.842 111.096 111.2 112.768C111.2 112.768 115.2 107.704 115.864 104.992C115.705 106.06 115.395 107.099 114.944 108.08C114.944 108.08 120.328 106.904 120.856 103.352C120.847 104.942 120.67 106.527 120.328 108.08C120.328 108.08 125.464 106.064 124.992 102.656C124.52 99.248 116.632 97.928 112.992 99.08C109.352 100.232 105.792 103.968 106.864 109.104C107.936 114.24 109.992 116.168 109.992 116.168C109.992 116.168 108.512 110.992 110.4 107.704Z" fill="#263238"/>
<path d="M107.856 116.352C108.35 117.537 109.293 118.478 110.48 118.968C112.08 119.608 113.032 118.24 112.752 116.656C112.504 115.224 111.376 113.176 109.72 113.208C109.358 113.224 109.005 113.33 108.694 113.517C108.383 113.703 108.123 113.964 107.938 114.276C107.753 114.588 107.649 114.941 107.634 115.304C107.62 115.666 107.696 116.026 107.856 116.352Z" fill="#FFC3BD"/>
<path d="M111.368 105.24C110.568 108.44 112.232 115.8 114.328 118.576C110.328 116.552 108.728 109.864 108.728 109.864L111.368 105.24Z" fill="#263238"/>
<path d="M116.208 109.752C116.249 109.74 116.287 109.719 116.32 109.692C116.353 109.664 116.38 109.63 116.4 109.592C116.569 109.231 116.82 108.915 117.135 108.671C117.449 108.426 117.817 108.259 118.208 108.184C118.291 108.172 118.366 108.129 118.418 108.064C118.47 107.998 118.495 107.915 118.488 107.832C118.484 107.79 118.472 107.75 118.452 107.713C118.432 107.676 118.404 107.643 118.372 107.617C118.339 107.591 118.301 107.572 118.26 107.561C118.22 107.549 118.178 107.546 118.136 107.552C117.64 107.638 117.171 107.842 116.77 108.147C116.369 108.452 116.048 108.849 115.832 109.304C115.805 109.36 115.794 109.422 115.802 109.483C115.809 109.545 115.835 109.603 115.874 109.65C115.914 109.698 115.967 109.732 116.026 109.751C116.085 109.769 116.148 109.769 116.208 109.752Z" fill="#263238"/>
<path d="M126.552 107.272C126.592 107.274 126.632 107.267 126.67 107.252C126.707 107.236 126.74 107.213 126.768 107.184C126.827 107.124 126.859 107.044 126.859 106.96C126.859 106.876 126.827 106.796 126.768 106.736C126.427 106.367 126.004 106.083 125.532 105.908C125.061 105.733 124.555 105.671 124.056 105.728C124.014 105.736 123.975 105.752 123.939 105.775C123.904 105.798 123.873 105.828 123.85 105.863C123.826 105.898 123.809 105.937 123.801 105.978C123.792 106.02 123.792 106.062 123.8 106.104C123.817 106.185 123.865 106.256 123.934 106.302C124.003 106.348 124.086 106.366 124.168 106.352C124.562 106.308 124.961 106.357 125.332 106.496C125.703 106.635 126.036 106.86 126.304 107.152C126.334 107.189 126.372 107.219 126.414 107.24C126.457 107.261 126.504 107.272 126.552 107.272Z" fill="#263238"/>
<path d="M102.344 143.488C101.232 147 100.168 150.688 99.2639 154.32C98.354 157.905 97.6885 161.548 97.2719 165.224L97.2079 165.896C97.2079 166.112 97.2079 166.16 97.2079 166.352C97.2168 166.729 97.2461 167.106 97.2959 167.48C97.3978 168.356 97.5447 169.227 97.7359 170.088C98.1119 171.872 98.5359 173.712 99.0799 175.536C99.6239 177.36 100.088 179.216 100.632 181.056L102.232 186.576L99.2639 187.8C97.4399 184.312 95.8559 180.76 94.3759 177.096C93.6639 175.256 92.9679 173.4 92.3919 171.44C92.1039 170.464 91.8319 169.464 91.5919 168.376C91.478 167.8 91.3978 167.218 91.3519 166.632C91.3519 166.336 91.3519 165.896 91.3519 165.632V164.832C91.4198 162.793 91.6067 160.761 91.9119 158.744C92.1759 156.744 92.5679 154.792 92.9919 152.848C93.8243 148.955 94.893 145.116 96.1919 141.352L102.344 143.488Z" fill="#FFC3BD"/>
<path d="M99.04 133.992C96.32 134.792 93.048 144.192 93.048 144.192L103.608 151.744C103.608 151.744 107.464 143.92 106.32 140.4C105.128 136.736 102.152 133.048 99.04 133.992Z" fill="#F58232"/>
<path opacity="0.4" d="M99.04 133.992C96.32 134.792 93.048 144.192 93.048 144.192L103.608 151.744C103.608 151.744 107.464 143.92 106.32 140.4C105.128 136.736 102.152 133.048 99.04 133.992Z" fill="white"/>
<path d="M84.448 309.456C84.5781 309.41 84.6965 309.336 84.7947 309.24C84.8928 309.143 84.9684 309.025 85.016 308.896C85.0622 308.813 85.0865 308.719 85.0865 308.624C85.0865 308.529 85.0622 308.435 85.016 308.352C84.536 307.648 82.112 307.704 81.816 307.712C81.7853 307.713 81.7555 307.722 81.7299 307.739C81.7044 307.756 81.6843 307.78 81.672 307.808C81.6564 307.833 81.6482 307.862 81.6482 307.892C81.6482 307.922 81.6564 307.951 81.672 307.976C82.304 308.608 83.488 309.64 84.32 309.48L84.448 309.456ZM82.2 308C83.168 308 84.464 308.136 84.72 308.512C84.7419 308.548 84.7535 308.59 84.7535 308.632C84.7535 308.674 84.7419 308.716 84.72 308.752C84.6846 308.849 84.626 308.935 84.5492 309.003C84.4724 309.072 84.38 309.12 84.28 309.144C83.84 309.256 83.072 308.8 82.2 308Z" fill="#F58232"/>
<path d="M82.912 307.832C83.648 307.6 84.432 307.192 84.6 306.736C84.6417 306.617 84.6423 306.488 84.6017 306.369C84.5611 306.25 84.4816 306.148 84.376 306.08C84.2828 306.002 84.1732 305.947 84.0554 305.918C83.9376 305.889 83.8147 305.887 83.696 305.912C82.744 306.08 81.72 307.712 81.68 307.784C81.666 307.808 81.6586 307.836 81.6586 307.864C81.6586 307.892 81.666 307.92 81.68 307.944C81.6944 307.967 81.7143 307.987 81.738 308.001C81.7617 308.015 81.7885 308.023 81.816 308.024C82.1887 308.013 82.5579 307.949 82.912 307.832ZM83.648 306.232H83.752C83.8272 306.216 83.905 306.218 83.9797 306.236C84.0544 306.254 84.1242 306.288 84.184 306.336C84.344 306.464 84.328 306.56 84.304 306.632C84.144 307.072 82.928 307.6 82.12 307.704C82.4876 307.089 83.0159 306.586 83.648 306.248V306.232Z" fill="#F58232"/>
<path d="M128.736 325.552C129.3 325.598 129.863 325.455 130.336 325.144C130.446 325.044 130.53 324.919 130.58 324.78C130.63 324.64 130.645 324.491 130.624 324.344C130.618 324.257 130.589 324.174 130.542 324.101C130.494 324.028 130.429 323.969 130.352 323.928C129.552 323.48 126.872 324.84 126.568 324.992C126.539 325.004 126.514 325.025 126.496 325.051C126.478 325.077 126.469 325.108 126.469 325.14C126.469 325.172 126.478 325.203 126.496 325.229C126.514 325.255 126.539 325.276 126.568 325.288C127.28 325.449 128.006 325.537 128.736 325.552ZM129.928 324.168C130.03 324.162 130.132 324.181 130.224 324.224C130.256 324.241 130.282 324.267 130.3 324.298C130.318 324.329 130.328 324.364 130.328 324.4C130.343 324.492 130.335 324.586 130.304 324.674C130.273 324.762 130.221 324.841 130.152 324.904C129.744 325.272 128.64 325.336 127.16 325.088C128.024 324.627 128.96 324.316 129.928 324.168Z" fill="#F58232"/>
<path d="M126.664 325.32H126.728C127.528 324.96 129.128 323.52 128.984 322.76C128.984 322.576 128.824 322.36 128.384 322.312C128.227 322.294 128.067 322.309 127.916 322.356C127.764 322.403 127.624 322.481 127.504 322.584C126.704 323.288 126.512 325.088 126.504 325.16C126.503 325.188 126.509 325.216 126.522 325.241C126.534 325.266 126.553 325.288 126.576 325.304C126.602 325.32 126.634 325.326 126.664 325.32ZM128.264 322.608H128.36C128.648 322.608 128.672 322.76 128.672 322.792C128.752 323.248 127.68 324.392 126.864 324.88C126.928 324.12 127.227 323.398 127.72 322.816C127.867 322.683 128.058 322.609 128.256 322.608H128.264Z" fill="#F58232"/>
<path d="M103.448 172.968L102.76 175.368C102.664 175.552 102.888 175.744 103.2 175.744H131.2C131.448 175.744 131.648 175.624 131.664 175.472L131.912 173.072C131.912 172.904 131.712 172.76 131.448 172.76H103.896C103.81 172.753 103.723 172.769 103.645 172.805C103.566 172.842 103.499 172.898 103.448 172.968Z" fill="#263238"/>
<path d="M107.144 176.04H106.4C106.256 176.04 106.144 175.968 106.152 175.872L106.496 172.672C106.496 172.584 106.64 172.504 106.784 172.504H107.52C107.672 172.504 107.776 172.584 107.768 172.672L107.424 175.872C107.424 176 107.296 176.04 107.144 176.04Z" fill="#F58232"/>
<path opacity="0.4" d="M107.144 176.04H106.4C106.256 176.04 106.144 175.968 106.152 175.872L106.496 172.672C106.496 172.584 106.64 172.504 106.784 172.504H107.52C107.672 172.504 107.776 172.584 107.768 172.672L107.424 175.872C107.424 176 107.296 176.04 107.144 176.04Z" fill="black"/>
<path d="M129.088 176.04H128.352C128.208 176.04 128.096 175.968 128.104 175.872L128.456 172.672C128.456 172.584 128.592 172.504 128.736 172.504H129.472C129.624 172.504 129.736 172.584 129.72 172.672L129.376 175.872C129.368 176 129.24 176.04 129.088 176.04Z" fill="#F58232"/>
<path opacity="0.4" d="M129.088 176.04H128.352C128.208 176.04 128.096 175.968 128.104 175.872L128.456 172.672C128.456 172.584 128.592 172.504 128.736 172.504H129.472C129.624 172.504 129.736 172.584 129.72 172.672L129.376 175.872C129.368 176 129.24 176.04 129.088 176.04Z" fill="black"/>
<path d="M118.12 176.04H117.384C117.232 176.04 117.12 175.968 117.136 175.872L117.48 172.672C117.48 172.584 117.616 172.504 117.768 172.504H118.504C118.648 172.504 118.76 172.584 118.752 172.672L118.408 175.872C118.4 176 118.264 176.04 118.12 176.04Z" fill="#F58232"/>
<path opacity="0.4" d="M118.12 176.04H117.384C117.232 176.04 117.12 175.968 117.136 175.872L117.48 172.672C117.48 172.584 117.616 172.504 117.768 172.504H118.504C118.648 172.504 118.76 172.584 118.752 172.672L118.408 175.872C118.4 176 118.264 176.04 118.12 176.04Z" fill="black"/>
<path d="M118.672 110.552L119.88 109.96C119.88 109.96 119.4 111.072 118.672 110.552Z" fill="#263238"/>
<path d="M102.008 185.672L107.744 190.072L101.096 191.536C101.096 191.536 98.272 188.336 99.248 185.696L102.008 185.672Z" fill="#FFC3BD"/>
<path d="M109.152 195.52L103.52 196.44L100.448 190.664L107.744 190.072L109.152 195.52Z" fill="#FFC3BD"/>
</svg>
